<?xml version="1.0" standalone="no"?>
<!DOCTYPE svg PUBLIC "-//W3C//DTD SVG 20010904//EN"
 "http://www.w3.org/TR/2001/REC-SVG-20010904/DTD/svg10.dtd">
<svg version="1.0" xmlns="http://www.w3.org/2000/svg"
 width="1024.000000pt" height="1024.000000pt" viewBox="0 0 1024.000000 1024.000000"
 preserveAspectRatio="xMidYMid meet">

<g transform="translate(0.000000,1024.000000) scale(0.100000,-0.100000)"
fill="#000000" stroke="none">
<path d="M3795 9463 c-40 -10 -84 -53 -96 -93 -24 -78 23 -155 111 -181 48
-15 81 -6 122 30 26 23 32 37 36 83 5 63 -12 105 -56 136 -30 22 -85 33 -117
25z"/>
<path d="M4731 9409 c-18 -6 -50 -21 -70 -33 -79 -51 -116 -111 -127 -209 l-6
-54 83 -5 c46 -3 89 -3 94 1 10 6 17 7 50 9 12 1 28 16 39 36 22 41 82 106 97
106 6 0 27 -16 46 -35 33 -33 35 -39 31 -80 -3 -25 -13 -56 -22 -70 -21 -31
-78 -61 -135 -68 -24 -3 -47 -9 -51 -14 -4 -4 -10 -33 -14 -63 l-6 -56 54 -18
c65 -22 100 -17 200 27 77 34 78 35 117 87 15 19 39 49 53 65 34 39 55 110 44
150 -21 78 -148 189 -252 220 -55 17 -173 18 -225 4z"/>
<path d="M2422 9394 c-22 -15 -30 -44 -12 -44 5 0 14 9 20 20 12 22 18 24 39
11 24 -15 4 -59 -40 -88 -38 -25 -39 -28 -23 -40 21 -15 94 -18 94 -3 0 6 -13
10 -30 10 -16 0 -30 3 -30 6 0 4 16 24 35 45 38 42 40 50 25 80 -13 23 -47 25
-78 3z"/>
<path d="M2636 9388 c-17 -23 -21 -48 -9 -48 4 0 18 12 30 28 22 26 23 27 38
8 23 -30 19 -39 -32 -75 -45 -32 -46 -34 -27 -48 28 -21 88 -13 92 12 3 16 1
18 -9 8 -7 -7 -21 -13 -31 -13 -28 0 -20 23 15 45 57 36 42 105 -23 105 -18 0
-34 -8 -44 -22z"/>
<path d="M2935 9400 c-40 -16 -85 -83 -85 -125 0 -26 51 -74 108 -102 l57 -28
-55 -6 c-76 -8 -100 -23 -100 -59 0 -39 34 -60 107 -67 69 -6 139 10 153 36
16 31 -11 45 -78 39 -118 -10 -108 22 20 62 48 15 88 62 88 103 0 51 -37 115
-81 137 -39 21 -99 25 -134 10z m105 -80 c39 -39 14 -110 -39 -110 -32 0 -46
13 -56 53 -16 61 51 101 95 57z"/>
<path d="M7465 9401 c-87 -23 -145 -88 -153 -172 -4 -45 -4 -46 28 -53 53 -10
99 -7 130 9 17 9 30 19 30 23 0 9 42 27 93 40 32 9 37 8 37 -7 0 -9 -16 -44
-37 -77 -20 -32 -58 -94 -84 -137 -43 -70 -76 -152 -93 -230 l-7 -28 63 3 c62
3 63 4 74 38 6 19 16 36 23 38 6 2 11 15 11 28 0 17 4 23 12 18 7 -4 8 -3 4 5
-5 7 14 45 45 91 33 49 56 75 60 68 4 -7 3 -20 -3 -31 -14 -26 -5 -30 15 -7 9
11 15 20 12 20 -11 0 78 80 96 85 25 8 32 41 25 112 -5 51 -10 62 -44 94 -30
28 -54 40 -112 53 -91 21 -185 28 -225 17z"/>
<path d="M1828 9380 c-84 -66 -38 -200 69 -200 70 0 133 44 133 93 0 22 -12
42 -49 78 -42 42 -54 49 -88 49 -25 0 -50 -8 -65 -20z"/>
<path d="M2143 9374 c-21 -21 -24 -32 -20 -61 7 -43 33 -73 62 -73 41 0 64 56
51 125 -6 31 -10 35 -37 35 -19 0 -39 -10 -56 -26z m68 -15 c13 -25 4 -82 -15
-98 -22 -18 -46 13 -46 59 0 27 6 42 18 49 25 15 30 14 43 -10z"/>
<path d="M5528 9389 c-27 -15 -23 -63 5 -76 34 -16 57 1 57 41 0 43 -25 57
-62 35z"/>
<path d="M6824 9386 c-9 -24 4 -48 23 -44 12 2 18 12 18 28 0 29 -32 41 -41
16z"/>
<path d="M8423 9369 c-18 -5 -35 -15 -39 -21 -5 -8 -2 -9 12 -3 10 4 31 10 47
13 15 2 27 8 27 13 0 10 -4 10 -47 -2z"/>
<path d="M8203 9355 c-3 -9 -3 -19 1 -22 8 -9 37 18 30 28 -8 14 -24 11 -31
-6z"/>
<path d="M7027 9342 c-25 -28 -21 -67 9 -91 30 -24 54 -27 72 -9 9 9 12 9 12
-1 0 -17 26 3 42 32 9 17 8 19 -6 14 -11 -4 -16 -1 -16 11 0 10 -7 28 -16 40
-19 28 -74 30 -97 4z"/>
<path d="M8833 9340 c-71 -43 -84 -115 -24 -135 18 -6 39 -18 45 -27 7 -10 30
-18 57 -20 42 -3 44 -5 47 -36 5 -45 -13 -64 -57 -60 -29 2 -39 10 -56 38 -17
31 -24 35 -50 30 -25 -4 -31 -10 -33 -38 -4 -41 37 -85 96 -102 34 -11 48 -10
89 4 62 22 73 24 105 25 19 1 32 11 48 38 19 33 21 42 10 76 -6 21 -11 55 -10
75 3 57 2 61 -26 87 -30 28 -57 33 -48 10 4 -8 -10 1 -29 20 -30 30 -41 35
-83 35 -31 0 -61 -7 -81 -20z m98 -50 c41 -22 11 -80 -41 -80 -25 0 -40 15
-40 41 0 12 38 49 51 49 6 0 19 -5 30 -10z"/>
<path d="M5611 9334 c0 -11 3 -14 6 -6 3 7 2 16 -1 19 -3 4 -6 -2 -5 -13z"/>
<path d="M3350 9318 c-46 -24 -90 -77 -90 -109 0 -13 12 -21 39 -29 50 -13 68
-6 76 31 7 29 30 49 59 49 23 0 56 -36 56 -60 0 -29 -78 -109 -147 -150 -70
-41 -73 -45 -73 -91 l0 -36 92 -7 c50 -3 122 -6 160 -6 l68 0 0 39 0 39 -87 7
c-49 3 -92 8 -98 9 -5 2 22 23 61 49 89 57 110 79 117 124 9 54 -17 109 -68
138 -53 31 -107 32 -165 3z"/>
<path d="M6280 9325 c-18 -22 -4 -64 24 -71 50 -12 88 40 54 74 -17 17 -63 15
-78 -3z"/>
<path d="M8330 9309 c-6 -11 -10 -28 -8 -37 2 -10 8 -1 15 21 12 41 10 48 -7
16z"/>
<path d="M8549 9303 c26 -53 10 -83 -46 -83 -24 0 -25 -1 -10 -22 15 -24 57
-32 69 -13 14 19 8 101 -8 121 -15 18 -15 18 -5 -3z"/>
<path d="M8606 9262 c4 -33 1 -59 -10 -86 -20 -47 -20 -45 3 -39 23 6 52 62
53 103 1 20 -7 37 -22 50 -13 11 -25 20 -27 20 -2 0 -1 -22 3 -48z"/>
<path d="M4272 9274 c-22 -47 33 -98 63 -57 24 32 24 52 2 68 -31 22 -52 18
-65 -11z m68 -20 c0 -8 -4 -14 -10 -14 -5 0 -10 9 -10 21 0 11 5 17 10 14 6
-3 10 -13 10 -21z"/>
<path d="M4431 9283 c0 -6 -4 -20 -7 -30 -5 -14 -4 -15 5 -7 7 7 11 20 8 30
-3 11 -5 14 -6 7z"/>
<path d="M6387 9283 c-12 -12 -7 -33 8 -33 17 0 19 9 7 28 -5 7 -11 9 -15 5z"/>
<path d="M5857 9263 c-30 -34 -31 -70 -3 -97 14 -15 33 -26 44 -26 10 0 23 -5
29 -11 9 -9 20 -9 42 1 30 12 46 45 16 34 -11 -5 -13 1 -8 31 5 29 1 41 -17
60 -28 30 -79 33 -103 8z"/>
<path d="M1221 9238 c-50 -27 -81 -100 -57 -134 14 -18 15 -18 40 5 14 13 28
32 32 43 6 21 63 25 82 6 19 -19 14 -76 -8 -98 -25 -25 -41 -25 -90 0 l-40 20
0 -28 c0 -35 27 -61 75 -72 76 -17 165 37 165 99 0 17 5 31 10 31 12 0 9 18
-7 39 -66 84 -79 94 -129 98 -29 2 -59 -1 -73 -9z"/>
<path d="M6660 9240 c-211 -44 -354 -255 -311 -461 27 -129 108 -234 230 -296
55 -29 74 -33 138 -33 132 0 210 29 297 109 26 24 37 30 32 17 -5 -16 -4 -17
9 -6 9 7 14 18 12 24 -6 16 23 45 39 39 8 -3 14 -1 14 5 0 6 -5 12 -11 14 -5
2 -7 11 -3 22 5 14 9 15 16 4 6 -9 7 -6 3 8 -6 22 12 74 25 74 4 0 6 -12 3
-27 -3 -28 -3 -28 7 -4 11 26 6 56 -9 47 -5 -3 -6 16 -3 42 6 60 12 67 12 14
0 -23 4 -42 9 -42 14 0 21 122 9 162 -12 42 -65 111 -79 103 -5 -4 -9 -1 -9 5
0 24 -108 114 -175 146 -78 37 -177 50 -255 34z m237 -101 c76 -36 134 -100
164 -178 56 -149 -25 -337 -178 -413 -41 -19 -63 -23 -148 -23 -85 0 -107 4
-148 24 -28 14 -52 33 -57 47 -5 13 -12 24 -15 24 -4 0 -3 -6 1 -12 4 -7 -4
-3 -18 10 -43 39 -82 138 -83 207 0 34 4 60 10 60 6 0 10 -11 11 -25 2 -80 5
-98 19 -116 15 -17 15 -14 9 46 -16 148 -15 149 82 249 47 49 99 95 115 101
16 7 26 16 24 20 -8 13 34 19 95 14 33 -3 80 -17 117 -35z"/>
<path d="M5396 9215 c-81 -29 -126 -79 -129 -145 l-2 -44 66 -36 65 -36 -12
35 c-19 53 -17 76 12 110 23 28 31 31 83 31 126 0 120 -93 -9 -148 -58 -25
-74 -43 -57 -65 10 -15 21 -16 86 -8 81 10 97 8 112 -20 13 -25 -10 -79 -47
-108 -23 -18 -38 -21 -93 -19 l-66 3 -23 45 c-12 25 -29 45 -37 44 -8 0 -31
-1 -51 -2 l-37 -2 6 -40 c7 -53 28 -84 79 -117 33 -22 55 -28 112 -31 104 -5
150 21 195 111 l34 68 -25 27 c-14 15 -35 42 -47 59 l-22 33 36 44 c51 62 55
101 15 149 -61 72 -151 95 -244 62z"/>
<path d="M7955 9216 c-17 -7 -43 -28 -58 -45 -23 -28 -27 -42 -27 -94 0 -97
43 -151 133 -168 41 -7 74 2 183 53 27 13 44 49 44 93 0 50 -6 59 -77 120 -61
52 -68 55 -116 55 -29 -1 -66 -7 -82 -14z m105 -186 c9 -6 17 -5 22 3 5 8 8 6
8 -5 0 -24 -35 -58 -60 -58 -23 0 -60 33 -60 55 0 17 65 21 90 5z"/>
<path d="M8340 9176 c0 -4 9 -21 21 -37 35 -50 134 -63 185 -24 16 12 11 12
-29 -1 -66 -22 -109 -12 -147 34 -16 20 -30 33 -30 28z"/>
<path d="M3891 9140 c-106 -39 -186 -131 -198 -228 l-5 -49 91 -2 91 -2 0 36
c0 38 19 83 44 104 26 22 88 31 130 20 61 -16 96 -58 96 -112 0 -38 -5 -49
-31 -71 -25 -21 -41 -26 -85 -26 l-54 0 0 -60 0 -60 59 0 c56 0 60 -2 95 -40
51 -56 46 -120 -12 -173 -31 -29 -128 -34 -172 -9 -39 21 -80 84 -80 123 0 25
-4 27 -61 33 -108 11 -119 9 -119 -19 0 -44 42 -138 81 -180 21 -23 62 -55 91
-71 48 -26 62 -29 148 -29 116 0 177 24 243 94 87 93 99 190 34 279 l-36 49
31 43 c43 58 51 146 20 207 -65 126 -258 195 -401 143z"/>
<path d="M1608 9127 c-98 -37 -170 -101 -216 -192 -25 -52 -32 -84 -34 -175
-1 -66 3 -82 30 -135 59 -116 142 -184 258 -211 72 -16 209 14 241 54 8 9 12
11 8 5 -11 -23 6 -14 40 20 17 17 47 43 64 57 51 38 71 87 71 174 0 145 -18
185 -139 305 -86 86 -234 131 -323 98z m167 -241 c99 -99 -1 -317 -117 -255
-47 25 -93 89 -64 89 9 0 16 18 21 47 10 69 29 98 77 122 53 26 54 26 83 -3z"/>
<path d="M2146 9124 c-4 -9 -3 -20 0 -23 4 -3 9 0 11 7 3 6 14 12 24 12 18 0
20 -6 17 -47 -2 -40 -6 -48 -23 -48 -12 0 -21 9 -25 25 l-6 25 -8 -24 c-6 -16
-4 -26 5 -32 23 -14 66 -10 73 7 9 24 7 73 -4 95 -13 23 -55 25 -64 3z"/>
<path d="M2440 9118 c0 -17 3 -19 12 -10 20 20 28 14 28 -19 0 -21 -6 -32 -18
-36 -10 -2 -23 -13 -30 -23 -11 -18 -9 -19 28 -17 39 2 50 10 31 22 -6 3 -6
18 0 38 16 55 12 67 -21 67 -24 0 -30 -4 -30 -22z"/>
<path d="M2656 9127 c-9 -7 -21 -30 -26 -51 -7 -31 -5 -41 11 -57 21 -21 59
-25 77 -7 18 18 15 94 -4 112 -19 19 -35 20 -58 3z m52 -35 c5 -15 6 -37 1
-50 -10 -25 -44 -30 -53 -6 -8 21 -8 69 1 77 15 16 42 5 51 -21z"/>
<path d="M4400 9050 c-24 -45 15 -82 56 -55 28 18 29 23 8 53 -19 28 -50 28
-64 2z"/>
<path d="M6171 9028 c-9 -22 10 -58 30 -58 10 0 39 29 39 40 0 14 -30 40 -46
40 -8 0 -19 -10 -23 -22z"/>
<path d="M6276 8978 c-10 -38 -7 -44 10 -19 11 15 13 26 6 33 -6 6 -11 1 -16
-14z"/>
<path d="M8420 8986 c-127 -36 -208 -126 -213 -237 l-2 -44 108 -9 109 -9 56
56 c32 30 67 60 80 66 77 40 122 -92 57 -167 -19 -22 -32 -27 -89 -30 l-66 -4
0 -67 0 -68 33 5 c29 4 25 -1 -38 -44 -67 -46 -74 -49 -170 -59 l-100 -10 -3
-43 c-4 -59 27 -120 91 -178 76 -68 118 -86 217 -91 47 -3 112 0 145 7 33 6
67 13 75 14 31 4 90 28 90 37 0 5 5 8 12 6 7 -1 15 14 18 36 10 58 20 56 20
-4 1 -107 59 -179 147 -179 30 0 50 7 73 26 134 113 55 340 -108 308 -28 -6
-31 -4 -30 17 5 77 -6 118 -33 123 -46 9 -123 66 -88 66 6 0 8 4 5 9 -3 5 3
11 13 14 19 5 73 81 104 149 19 41 22 79 6 95 -5 5 -18 25 -27 44 -20 39 -91
96 -130 105 -15 3 -56 20 -92 37 -53 25 -80 31 -145 34 -45 1 -100 -3 -125
-11z m191 -549 c40 -27 79 -82 79 -111 0 -65 -78 -120 -170 -121 l-55 0 -3 52
c-3 40 2 63 24 107 30 61 58 96 78 96 7 0 28 -10 47 -23z m468 -203 c48 -54
54 -100 22 -162 -30 -59 -56 -77 -111 -77 -58 0 -91 26 -116 91 -23 60 -13
119 28 162 28 28 38 32 84 32 50 0 54 -2 93 -46z"/>
<path d="M8957 8240 c-3 -8 -8 -37 -10 -65 -3 -27 -8 -59 -12 -70 -4 -13 6 -6
27 18 31 35 65 47 82 30 4 -5 13 -8 19 -8 6 0 17 -11 24 -25 l13 -25 0 24 c0
24 -67 101 -89 101 -19 0 -12 -16 12 -27 l22 -11 -25 1 c-14 0 -33 -3 -44 -8
-16 -7 -17 -5 -9 11 6 10 7 30 3 44 -5 18 -9 21 -13 10z"/>
<path d="M2850 8941 c-130 -44 -217 -122 -278 -249 -31 -65 -36 -86 -40 -172
-4 -81 -1 -110 17 -168 11 -39 21 -73 21 -76 0 -3 -12 -1 -27 5 -19 8 -160 11
-427 10 -220 0 -400 -2 -401 -3 -2 -2 -4 -48 -6 -103 l-4 -100 220 -6 c121 -4
252 -7 291 -8 l71 -1 -81 -82 c-184 -186 -246 -333 -311 -733 -24 -149 -36
-135 114 -135 147 0 133 -10 146 102 4 32 11 56 14 53 4 -2 8 2 8 10 0 8 -3
12 -7 10 -4 -3 -4 14 1 38 36 195 87 366 101 345 6 -9 8 -7 6 7 -3 30 11 77
22 70 5 -3 7 0 4 8 -8 21 80 183 98 179 8 -1 20 9 26 24 10 20 10 24 0 18 -7
-5 1 10 17 32 36 49 100 124 91 107 -14 -26 23 -12 42 15 30 42 31 54 10 92
-14 26 -15 28 -2 10 65 -93 218 -189 333 -210 155 -29 281 7 394 110 30 27 59
50 63 50 13 0 94 78 94 90 0 5 4 10 9 10 16 0 22 34 27 148 4 98 1 120 -16
159 -11 25 -20 52 -20 59 0 8 -5 14 -10 14 -6 0 -9 3 -9 8 4 21 -6 36 -63 95
-71 73 -163 139 -229 163 -69 26 -241 29 -309 5z m279 -217 c63 -32 105 -85
127 -162 62 -213 -170 -412 -365 -312 -22 11 -42 29 -46 40 -6 18 -17 24 -37
21 -4 0 -5 6 -2 14 4 9 2 21 -4 28 -6 7 -6 43 0 97 13 126 52 200 137 257 78
52 114 55 190 17z m-582 -571 c-3 -10 -5 -4 -5 12 0 17 2 24 5 18 2 -7 2 -21
0 -30z"/>
<path d="M2162 8918 c-7 -7 -12 -17 -12 -22 0 -6 5 -4 10 4 12 20 26 4 34 -39
6 -32 5 -33 -24 -29 -19 3 -29 1 -27 -6 2 -6 18 -12 35 -14 32 -3 32 -3 32 42
0 71 -18 94 -48 64z"/>
<path d="M2430 8920 c0 -5 11 -10 25 -10 36 0 34 -42 -2 -69 l-28 -20 31 -1
c29 0 33 4 42 42 8 30 8 46 0 55 -12 15 -68 18 -68 3z"/>
<path d="M5843 8884 c-3 -9 3 -24 14 -36 17 -16 24 -18 42 -9 26 15 27 37 2
51 -28 15 -51 12 -58 -6z"/>
<path d="M7863 8810 c-48 -29 -58 -55 -63 -168 l-5 -103 -80 59 c-110 81 -158
104 -230 110 -193 15 -350 -125 -363 -324 -6 -97 15 -158 80 -230 28 -30 74
-67 102 -81 98 -50 244 -39 341 25 22 14 42 27 45 27 15 2 50 27 50 36 0 6 20
37 44 69 48 63 61 108 57 204 -1 50 1 58 15 52 64 -25 119 -18 166 22 18 15
29 21 25 15 -11 -18 25 -4 41 16 32 40 45 82 38 127 -7 56 -25 79 -96 127 -65
43 -116 48 -167 17z m117 -76 c15 -38 -3 -64 -45 -64 -28 0 -36 4 -41 24 -9
37 12 66 47 66 22 0 32 -6 39 -26z m-425 -128 c61 -28 130 -101 144 -152 35
-126 -24 -261 -139 -319 -47 -24 -161 -25 -215 -1 -123 53 -180 207 -124 337
17 40 24 47 35 38 11 -9 14 -9 14 0 0 7 4 10 9 7 5 -4 21 9 36 26 73 89 145
109 240 64z m435 -16 c0 -27 -42 -52 -73 -45 -14 4 -33 17 -41 30 -16 24 -15
24 27 28 89 8 87 8 87 -13z m-710 -34 c0 -2 -8 -10 -17 -17 -16 -13 -17 -12
-4 4 13 16 21 21 21 13z"/>
<path d="M4606 8813 l-88 -4 6 -42 c13 -83 49 -142 112 -184 56 -37 59 -38
166 -41 141 -5 334 13 364 33 24 16 32 57 16 82 -16 25 -69 33 -227 34 l-162
0 -6 45 c-6 56 -20 73 -46 57 -16 -10 -20 -9 -24 8 -3 10 -9 18 -14 17 -4 -1
-48 -4 -97 -5z"/>
<path d="M8970 8796 c0 -31 13 -40 46 -32 19 5 25 12 22 29 -2 17 -11 23 -35
25 -29 3 -33 0 -33 -22z"/>
<path d="M6025 8803 c-29 -7 -65 -43 -81 -80 -19 -45 -18 -57 12 -93 15 -17
25 -32 23 -34 -2 -2 -14 -8 -26 -15 -50 -26 -34 -111 29 -149 93 -56 191 -29
276 74 21 24 23 34 16 73 -4 25 -7 51 -6 57 3 18 -44 107 -70 131 -41 38 -107
52 -173 36z m110 -93 c21 -23 15 -43 -19 -65 -32 -22 -61 -12 -76 25 -10 24
-10 33 0 45 18 22 73 19 95 -5z m25 -174 c0 -55 -93 -79 -124 -32 -28 44 -25
49 44 61 69 11 80 7 80 -29z"/>
<path d="M1193 8754 c-7 -20 8 -48 29 -52 17 -3 43 41 34 57 -11 17 -56 13
-63 -5z"/>
<path d="M2279 8741 c-92 -7 -139 -27 -139 -61 0 -28 12 -31 75 -19 62 11 105
6 105 -14 0 -7 -19 -36 -43 -65 -26 -31 -53 -80 -67 -120 -13 -37 -25 -73 -28
-80 -3 -10 7 -12 43 -10 l47 3 17 55 c20 64 60 137 109 198 25 30 35 53 36 80
1 36 0 37 -34 38 -19 1 -74 -2 -121 -5z"/>
<path d="M6250 8702 c0 -12 19 -26 26 -19 2 2 -2 10 -11 17 -9 8 -15 8 -15 2z"/>
<path d="M5375 8610 c-145 -26 -261 -85 -349 -180 -69 -74 -111 -178 -131
-323 l-6 -47 213 2 213 3 33 64 c18 35 47 78 65 96 17 18 41 44 52 58 19 23
24 25 60 17 136 -31 186 -199 101 -344 -30 -51 -92 -105 -191 -167 -227 -141
-386 -296 -488 -477 -42 -76 -54 -115 -66 -207 l-7 -65 572 0 572 0 7 42 c7
39 8 40 21 23 17 -23 17 -26 -1 63 -9 40 -13 77 -10 82 3 5 -4 19 -16 31 -11
11 -19 29 -16 39 4 15 -4 18 -57 24 -33 3 -186 6 -339 6 -161 1 -275 5 -272
10 3 5 12 7 20 4 8 -3 29 -1 47 5 25 8 37 21 51 54 16 39 31 52 131 115 122
77 202 138 279 211 30 28 45 38 41 26 -7 -18 -6 -19 12 -5 10 8 27 22 36 31
10 10 26 23 36 31 10 7 35 42 55 78 32 58 37 75 39 145 2 44 -1 104 -5 133 -8
49 -8 52 12 52 28 0 27 16 -3 24 -13 3 -34 23 -48 44 -14 21 -41 50 -59 65
-190 155 -249 191 -364 221 -80 20 -179 27 -240 16z"/>
<path d="M8950 8563 c-19 -18 -33 -41 -36 -64 -5 -31 -1 -42 24 -70 30 -34 32
-34 108 -32 83 2 120 15 130 45 8 28 -3 51 -39 76 -17 12 -47 34 -66 47 -45
33 -83 32 -121 -2z"/>
<path d="M1150 8498 c-28 -47 -45 -125 -30 -143 15 -18 107 -45 152 -45 43 0
68 -25 68 -68 0 -27 -6 -35 -35 -49 -43 -20 -77 -8 -103 37 -14 25 -23 30 -56
30 -38 0 -38 0 -32 -32 16 -79 71 -113 173 -106 81 5 117 36 133 114 20 94
-24 139 -144 151 -63 6 -63 6 -56 32 7 26 8 26 101 26 l94 0 -3 35 c-2 19 -6
38 -9 43 -2 4 -56 7 -119 7 l-114 0 -20 -32z"/>
<path d="M3566 8514 c-21 -21 -20 -37 3 -58 39 -35 85 1 63 48 -13 29 -43 34
-66 10z"/>
<path d="M4659 8490 c-84 -6 -118 -13 -165 -34 -73 -33 -94 -52 -94 -83 l0
-25 140 4 c77 2 140 0 140 -3 0 -4 -11 -26 -24 -50 -70 -126 -121 -316 -114
-424 l3 -50 54 -3 c60 -3 71 4 71 53 0 17 9 73 20 125 24 121 107 291 156 319
25 15 33 28 39 60 8 47 -2 92 -16 70 -6 -10 -9 -4 -9 19 0 32 0 32 -47 30 -27
0 -96 -4 -154 -8z"/>
<path d="M6504 8423 l-221 -3 -12 -83 c-7 -45 -25 -136 -41 -202 -44 -187 -49
-169 44 -173 76 -3 80 -2 110 27 105 101 256 37 256 -107 0 -91 -57 -152 -142
-152 -65 0 -109 32 -128 94 l-15 48 -44 -6 c-24 -3 -63 -6 -86 -6 l-43 0 13
-52 c24 -89 62 -139 138 -177 54 -28 81 -35 146 -39 102 -6 163 14 230 74 28
25 55 43 61 39 23 -14 48 8 78 68 47 92 49 118 18 170 -36 63 -143 166 -196
190 -29 13 -74 22 -128 25 -73 4 -89 2 -123 -17 -45 -25 -50 -15 -14 26 14 15
37 43 53 62 l28 33 169 7 169 6 7 27 c6 22 1 31 -27 56 -19 17 -34 40 -34 51
0 16 -6 20 -22 19 -13 -2 -122 -4 -244 -5z"/>
<path d="M7942 8393 c-44 -21 -80 -66 -88 -109 -9 -47 23 -136 51 -141 74 -13
118 -14 147 -4 l33 11 -30 -25 c-37 -30 -108 -34 -137 -8 -18 16 -18 16 -12 0
8 -23 56 -47 91 -47 15 0 44 10 63 22 19 12 45 21 56 19 38 -4 57 27 51 81 -4
27 -13 58 -22 70 -8 13 -15 30 -15 39 0 26 -49 80 -87 95 -42 18 -60 17 -101
-3z m119 -39 c40 -36 46 -136 11 -176 -18 -22 -71 -32 -117 -24 -43 8 -65 46
-65 112 0 41 5 51 37 81 32 31 41 35 76 30 21 -3 47 -13 58 -23z m66 -176 c-3
-8 -6 -5 -6 6 -1 11 2 17 5 13 3 -3 4 -12 1 -19z m-16 -41 c-10 -9 -11 -8 -5
6 3 10 9 15 12 12 3 -3 0 -11 -7 -18z"/>
<path d="M3514 8297 l-39 -36 2 -79 c3 -120 32 -164 119 -178 30 -4 52 -1 79
12 45 21 95 87 95 124 0 32 -18 91 -33 105 -7 7 -8 6 -3 -2 4 -7 5 -13 2 -13
-3 0 -12 15 -20 34 -18 42 -42 56 -111 63 -50 5 -55 4 -91 -30z m141 -57 c3
-5 2 -10 -3 -10 -19 0 -19 -37 -1 -59 37 -45 14 -91 -45 -91 l-32 0 -1 73 c0
39 4 78 9 85 12 14 64 16 73 2z"/>
<path d="M6940 8281 c-33 -6 -35 -9 -38 -48 -2 -33 1 -44 20 -57 12 -9 17 -16
11 -16 -40 0 -58 -83 -25 -113 50 -46 142 2 142 74 0 21 -7 42 -15 49 -14 12
-13 16 6 36 29 31 20 74 -15 74 -14 0 -30 2 -38 4 -7 2 -29 1 -48 -3z m55 -62
c0 -15 -7 -25 -17 -27 -13 -3 -18 3 -18 21 0 13 3 27 7 31 13 12 28 -1 28 -25z
m15 -107 c0 -53 -51 -72 -72 -27 -14 32 4 55 43 55 25 0 29 -4 29 -28z"/>
<path d="M3933 8141 c-43 -64 -125 -178 -183 -254 -239 -315 -250 -338 -250
-502 l0 -104 265 2 265 2 0 -111 0 -111 38 -7 c20 -3 79 -6 130 -6 l92 0 1 88
c1 48 4 77 8 64 6 -23 6 -23 18 7 8 21 8 31 1 31 -6 0 -3 9 7 20 13 14 31 20
61 20 50 0 49 -2 59 122 8 89 13 83 -87 93 l-68 7 0 59 c0 33 4 59 10 59 6 0
10 -5 10 -12 0 -9 3 -9 11 -1 19 19 18 534 0 556 -7 9 -17 15 -21 12 -9 -5
-20 29 -20 61 0 19 -6 20 -135 20 l-134 0 -78 -115z m97 -501 l0 -140 -145 0
c-80 0 -145 4 -145 9 0 5 9 19 21 32 l20 24 -17 -27 c-9 -16 -12 -28 -6 -28 6
0 16 8 21 18 7 11 10 12 11 4 0 -8 20 8 45 35 24 26 56 59 70 73 14 14 25 30
25 35 0 7 88 101 98 104 1 1 2 -62 2 -139z"/>
<path d="M9175 8168 c-2 -7 -5 -34 -8 -60 -4 -40 -2 -48 12 -48 25 0 41 20 41
53 0 48 -34 90 -45 55z"/>
<path d="M1396 8126 c-3 -16 -6 -52 -6 -81 l0 -53 50 -11 c28 -6 64 -11 80
-11 33 0 60 -31 60 -68 0 -17 -9 -27 -36 -38 -43 -18 -61 -13 -74 21 -8 22
-15 25 -60 25 -49 0 -51 -1 -45 -22 19 -62 58 -91 137 -103 67 -10 133 21 155
72 24 58 9 120 -37 151 -31 20 -42 23 -92 17 -58 -7 -58 -7 -58 20 l0 27 88
-3 87 -4 3 45 3 45 -125 0 -124 0 -6 -29z"/>
<path d="M8445 7927 c38 -42 71 -77 73 -77 11 0 -70 98 -103 124 -31 24 -25
14 30 -47z"/>
<path d="M1151 7964 c-24 -31 -25 -39 -10 -83 13 -38 35 -51 87 -51 54 0 96
41 88 85 -14 71 -122 103 -165 49z m95 -65 c9 -16 -12 -33 -31 -25 -14 5 -15
9 -5 21 15 18 26 19 36 4z"/>
<path d="M2685 7981 c-49 -3 -95 -10 -102 -14 -11 -7 -33 -67 -33 -89 0 -12
75 -10 107 3 15 5 45 13 67 16 l39 5 -6 -50 c-4 -31 -21 -79 -45 -124 -37 -67
-61 -132 -76 -199 -5 -23 -2 -27 21 -32 54 -10 91 3 102 36 6 16 11 40 11 52
0 12 9 51 20 86 20 61 49 234 50 292 0 30 15 29 -155 18z"/>
<path d="M7343 7962 c-28 -10 -67 -30 -86 -45 -36 -27 -97 -122 -97 -150 0
-19 -35 -28 -50 -13 -9 8 -10 5 -5 -14 6 -24 -4 -84 -20 -122 -4 -11 -3 -18 5
-18 14 0 75 59 82 80 4 12 10 11 37 -6 l32 -21 -35 -27 c-41 -31 -61 -87 -50
-143 5 -26 22 -53 59 -89 42 -42 65 -56 120 -73 37 -12 81 -21 97 -21 43 0
109 20 133 40 11 10 46 35 78 56 64 42 87 75 87 128 0 28 -6 37 -34 54 -30 18
-34 18 -29 4 4 -9 -7 -1 -23 18 -16 19 -34 39 -41 43 -7 4 -13 13 -13 19 0 9
36 57 76 99 11 12 12 22 5 43 -12 29 -23 36 -15 9 3 -10 -2 -4 -12 12 -66 120
-190 176 -301 137z m128 -141 c35 -35 36 -42 7 -76 -18 -20 -35 -27 -79 -32
-51 -5 -58 -3 -68 16 -20 36 3 95 44 111 38 16 66 10 96 -19z m8 -227 c26 -34
27 -68 1 -109 -40 -65 -114 -66 -149 -3 -15 26 -15 28 19 55 19 15 46 40 60
56 31 34 43 34 69 1z"/>
<path d="M7716 7958 c-21 -29 -20 -40 5 -72 24 -30 49 -33 72 -8 24 26 21 68
-5 86 -31 22 -54 20 -72 -6z"/>
<path d="M8144 7951 c-60 -27 -114 -80 -140 -136 -25 -52 -31 -128 -14 -155 6
-9 10 -10 10 -3 0 7 8 20 19 30 10 10 22 38 26 63 10 65 35 130 51 130 8 0 14
6 14 14 0 17 61 56 104 66 l31 8 -30 1 c-16 0 -48 -8 -71 -18z"/>
<path d="M3434 7901 c10 -11 24 -40 32 -67 46 -154 -32 -287 -199 -339 l-42
-14 35 0 c56 -1 220 90 220 122 0 6 7 18 16 28 19 22 29 145 13 155 -8 4 -8 9
0 14 17 10 -6 57 -44 92 -34 31 -57 38 -31 9z"/>
<path d="M8616 7878 c-39 -63 -22 -108 39 -108 58 0 78 60 35 106 -29 30 -55
31 -74 2z m67 -59 c-16 -16 -53 -1 -53 21 0 26 22 31 45 9 14 -14 16 -22 8
-30z"/>
<path d="M9062 7874 c-18 -12 -22 -24 -20 -51 4 -45 26 -61 65 -47 37 12 44
63 14 93 -25 25 -30 26 -59 5z m56 -38 c4 -19 -13 -36 -35 -36 -14 0 -18 42
-6 54 12 12 38 1 41 -18z"/>
<path d="M3172 7863 c-79 -39 -85 -164 -9 -205 20 -10 21 -10 9 5 -9 11 -13
36 -10 74 3 53 6 61 41 91 22 17 43 32 49 32 5 0 6 5 3 10 -9 15 -45 12 -83
-7z"/>
<path d="M8840 7854 c-22 -56 -6 -84 47 -84 18 0 33 2 33 5 0 2 -5 27 -11 55
-9 43 -14 50 -35 50 -17 0 -27 -8 -34 -26z m52 -31 c6 -45 6 -45 -16 -37 -10
4 -16 18 -16 40 0 48 26 45 32 -3z"/>
<path d="M1223 7701 c-95 -44 -155 -114 -159 -189 -1 -23 1 -40 6 -37 5 3 8
-8 8 -25 -1 -22 -4 -27 -13 -20 -19 16 -8 -85 15 -130 33 -64 76 -105 139
-134 123 -55 235 -42 314 37 84 83 104 113 107 164 7 103 2 158 -16 171 -5 4
-21 26 -36 49 -73 113 -247 167 -365 114z"/>
<path d="M6954 7676 c-9 -23 -1 -48 18 -60 14 -8 22 -6 39 10 17 18 19 25 10
43 -13 24 -59 29 -67 7z"/>
<path d="M9052 7678 c-18 -18 -15 -85 4 -92 25 -10 59 -7 72 6 15 15 16 53 2
79 -12 22 -59 26 -78 7z m63 -18 c9 -30 -4 -60 -26 -60 -15 0 -19 7 -19 33 0
19 3 37 7 40 13 13 32 7 38 -13z"/>
<path d="M8612 7668 c-17 -17 -15 -73 2 -87 25 -21 79 -9 95 20 13 24 13 29
-2 53 -13 19 -26 26 -50 26 -18 0 -38 -5 -45 -12z m66 -46 c3 -17 -2 -22 -17
-22 -16 0 -21 6 -21 26 0 33 33 30 38 -4z"/>
<path d="M8841 7654 c-19 -24 -20 -30 -8 -48 19 -28 49 -31 78 -7 23 19 23 21
9 48 -21 38 -52 41 -79 7z m57 -27 c3 -23 0 -27 -22 -27 -28 0 -32 10 -15 41
14 27 33 19 37 -14z"/>
<path d="M2256 7643 c-6 -14 -5 -15 5 -6 7 7 10 15 7 18 -3 3 -9 -2 -12 -12z"/>
<path d="M4710 7650 c0 -5 5 -10 11 -10 5 0 7 5 4 10 -3 6 -8 10 -11 10 -2 0
-4 -4 -4 -10z"/>
<path d="M4638 7643 c6 -2 12 -11 12 -19 0 -8 5 -14 10 -14 7 0 7 6 0 20 -6
11 -16 20 -23 19 -9 0 -9 -2 1 -6z"/>
<path d="M4800 7639 c0 -5 5 -7 10 -4 6 3 10 8 10 11 0 2 -4 4 -10 4 -5 0 -10
-5 -10 -11z"/>
<path d="M4755 7610 c3 -5 8 -10 11 -10 2 0 4 5 4 10 0 6 -5 10 -11 10 -5 0
-7 -4 -4 -10z"/>
<path d="M4535 7590 c3 -5 11 -10 16 -10 6 0 7 5 4 10 -3 6 -11 10 -16 10 -6
0 -7 -4 -4 -10z"/>
<path d="M4720 7590 c0 -5 5 -10 11 -10 5 0 7 5 4 10 -3 6 -8 10 -11 10 -2 0
-4 -4 -4 -10z"/>
<path d="M4660 7580 c0 -5 5 -10 11 -10 5 0 7 5 4 10 -3 6 -8 10 -11 10 -2 0
-4 -4 -4 -10z"/>
<path d="M4800 7561 c0 -5 5 -13 10 -16 6 -3 10 -2 10 4 0 5 -4 13 -10 16 -5
3 -10 2 -10 -4z"/>
<path d="M4620 7540 c0 -5 5 -10 10 -10 6 0 10 5 10 10 0 6 -4 10 -10 10 -5 0
-10 -4 -10 -10z"/>
<path d="M4671 7524 c0 -11 3 -14 6 -6 3 7 2 16 -1 19 -3 4 -6 -2 -5 -13z"/>
<path d="M4575 7500 c-3 -5 -1 -10 4 -10 6 0 11 5 11 10 0 6 -2 10 -4 10 -3 0
-8 -4 -11 -10z"/>
<path d="M4620 7480 c0 -5 5 -10 10 -10 6 0 10 5 10 10 0 6 -4 10 -10 10 -5 0
-10 -4 -10 -10z"/>
<path d="M6479 7455 c24 -22 52 -53 62 -69 16 -26 19 -28 19 -10 0 25 -14 42
-60 75 -59 43 -67 44 -21 4z"/>
<path d="M2361 7454 c-28 -36 -26 -60 8 -95 25 -24 37 -29 80 -29 45 0 53 3
63 25 8 18 8 32 -2 55 -29 70 -110 94 -149 44z"/>
<path d="M8632 7464 c-16 -11 -22 -25 -22 -50 0 -53 15 -74 53 -74 45 0 57 16
57 72 0 37 -4 50 -19 58 -27 14 -43 13 -69 -6z m56 -46 c3 -28 -20 -53 -43
-44 -20 7 -19 40 1 61 21 21 38 14 42 -17z"/>
<path d="M8852 7468 c-14 -18 -18 -96 -5 -109 6 -6 26 -9 44 -7 l34 3 0 53
c-1 54 -12 72 -46 72 -9 0 -21 -6 -27 -12z m56 -51 c3 -34 1 -37 -23 -37 -33
0 -42 23 -20 56 22 34 39 26 43 -19z"/>
<path d="M9036 7458 c-10 -40 -6 -85 9 -98 18 -15 85 -7 97 12 13 21 9 62 -8
86 -22 32 -89 32 -98 0z m62 -10 c15 -15 16 -55 2 -63 -16 -10 -40 14 -40 40
0 34 16 45 38 23z"/>
<path d="M4737 7463 c-4 -3 -7 -11 -7 -17 0 -6 5 -5 12 2 6 6 9 14 7 17 -3 3
-9 2 -12 -2z"/>
<path d="M7041 7430 c39 -48 69 -130 69 -191 0 -20 -9 -67 -21 -104 -32 -105
-121 -191 -227 -220 -40 -11 -43 -13 -17 -14 94 -3 247 48 284 95 l18 23 19
-20 c45 -50 127 -64 187 -32 18 9 35 17 39 18 9 0 58 55 58 65 0 4 5 10 12 12
24 8 -4 55 -62 103 -74 61 -92 68 -151 62 l-45 -4 -19 46 c-11 25 -18 47 -17
49 5 5 -28 59 -44 73 -16 13 -17 12 -11 -6 5 -15 2 -13 -13 6 -11 15 -37 39
-57 55 l-38 29 36 -45z"/>
<path d="M4590 7456 c0 -2 7 -7 16 -10 8 -3 12 -2 9 4 -6 10 -25 14 -25 6z"/>
<path d="M4801 7434 c0 -11 3 -14 6 -6 3 7 2 16 -1 19 -3 4 -6 -2 -5 -13z"/>
<path d="M6762 7374 c-96 -67 -71 -284 33 -284 19 0 20 6 20 92 0 71 5 105 20
140 11 27 25 48 30 48 6 0 3 5 -5 10 -23 15 -73 12 -98 -6z"/>
<path d="M7954 7372 l-130 -3 -130 -160 c-71 -89 -164 -205 -207 -258 -76 -93
-135 -178 -205 -291 l-34 -55 5 77 c5 72 4 79 -16 93 -30 21 -35 19 -40 -12
-2 -17 -5 -10 -6 20 l-1 47 -534 0 -533 0 -6 -42 c-3 -24 -3 -99 -1 -167 l4
-124 382 2 383 2 -72 -70 c-124 -122 -280 -389 -348 -596 -34 -103 -94 -344
-110 -444 -7 -43 -7 -44 16 -38 13 4 94 7 180 7 l156 0 28 117 c15 64 34 130
42 147 11 24 13 25 8 6 -16 -60 -17 -75 -8 -65 5 6 16 30 23 55 8 25 17 50 21
55 4 6 10 27 14 48 4 20 11 40 16 43 5 3 9 15 9 27 0 12 6 33 13 47 18 34 30
107 16 93 -5 -5 -11 -21 -13 -34 -3 -24 -7 -36 -31 -99 -7 -19 -16 -44 -19
-54 -4 -10 -9 -17 -11 -14 -9 9 106 332 164 459 72 157 149 291 163 282 7 -4
8 -1 4 6 -5 8 0 14 13 18 12 3 21 9 21 14 0 5 16 25 35 43 l35 34 0 -90 0 -91
178 7 c97 3 225 3 285 0 l107 -7 0 -134 0 -133 135 0 136 0 34 35 c27 27 35
43 35 72 1 64 17 123 36 138 11 8 40 15 66 15 47 0 63 10 63 42 0 10 15 32 34
49 l35 31 -46 43 c-26 24 -49 41 -52 37 -3 -3 -6 2 -6 10 0 13 -16 18 -77 23
-82 7 -114 13 -76 14 12 1 27 10 33 20 15 29 23 369 12 502 -10 123 -21 152
-64 172 -15 6 -29 16 -30 22 -2 6 -51 9 -134 7z m-125 -689 l1 -43 -167 0
c-91 0 -163 3 -159 7 4 4 22 6 40 5 33 -3 37 -1 87 54 14 16 37 37 50 46 13 9
49 34 79 55 l55 39 6 -61 c4 -33 7 -79 8 -102z"/>
<path d="M6272 7353 c-36 -17 -67 -56 -83 -102 -20 -56 23 -152 73 -164 23 -6
23 -6 3 9 -25 18 -22 40 14 119 33 70 76 125 99 125 25 1 -28 29 -53 29 -11 0
-35 -7 -53 -16z"/>
<path d="M2186 7345 c-3 -9 -6 -22 -5 -28 0 -7 5 -1 10 12 5 13 8 26 5 28 -2
2 -6 -3 -10 -12z"/>
<path d="M3386 7299 c102 -107 145 -216 145 -366 0 -158 -53 -294 -154 -397
-95 -97 -245 -164 -372 -167 l-50 -1 50 -10 c65 -12 179 4 215 31 15 11 36 18
46 17 36 -6 92 31 102 68 9 30 33 64 85 118 9 10 15 18 13 18 -3 0 8 27 25 59
16 33 29 67 29 75 0 22 17 28 33 11 22 -21 69 -16 62 6 -3 10 -1 20 5 24 13 8
13 131 0 208 -9 60 -58 168 -75 168 -5 0 -12 -10 -15 -22 -4 -17 -9 -10 -24
32 -14 38 -35 68 -70 102 -83 79 -116 96 -50 26z"/>
<path d="M8489 7300 c-50 -9 -100 -40 -126 -80 -42 -61 -27 -81 69 -97 l41 -6
-7 33 c-4 24 -2 38 10 52 30 32 104 19 104 -18 0 -7 -22 -28 -50 -48 -57 -41
-63 -56 -22 -56 44 0 74 -26 70 -63 -7 -68 -95 -76 -125 -12 -16 33 -20 35
-65 35 -55 0 -61 -13 -29 -66 46 -75 144 -113 216 -84 17 7 41 14 55 15 48 5
63 12 82 34 22 28 23 62 2 107 -18 37 -34 44 -35 17 0 -14 -2 -13 -9 4 -5 12
-20 29 -34 39 l-26 16 27 21 c27 21 63 30 63 15 0 -4 -7 -8 -15 -8 -8 0 -15
-4 -15 -10 0 -16 47 -11 54 6 3 9 6 33 6 54 0 29 -5 42 -20 50 -21 11 -44 5
-35 -10 3 -5 1 -12 -5 -15 -6 -4 -9 -1 -8 5 5 19 -64 67 -102 72 -19 3 -51 2
-71 -2z"/>
<path d="M4520 7261 c-15 -28 -12 -46 8 -64 23 -21 66 -22 86 -1 20 19 20 20
-1 55 -21 36 -76 41 -93 10z"/>
<path d="M2306 7249 c-32 -25 -34 -66 -5 -103 27 -34 77 -36 107 -3 31 33 28
70 -9 101 -37 31 -58 33 -93 5z"/>
<path d="M9058 7229 c-26 -15 -24 -75 3 -89 24 -14 69 -5 70 13 0 6 2 19 3 27
2 8 0 25 -5 38 -9 24 -41 29 -71 11z m51 -41 c10 -28 5 -39 -14 -31 -17 6 -21
53 -5 53 6 0 14 -10 19 -22z"/>
<path d="M8852 7218 c-22 -22 -14 -67 13 -80 35 -16 55 4 55 53 0 36 -2 39
-28 39 -15 0 -33 -5 -40 -12z m48 -43 c0 -16 -6 -25 -15 -25 -15 0 -21 31 -8
43 13 14 23 6 23 -18z"/>
<path d="M2939 7200 c-86 -15 -146 -61 -190 -148 -20 -39 -24 -62 -24 -132 0
-92 19 -145 74 -203 29 -32 80 -62 89 -53 3 3 0 6 -6 6 -17 0 -62 52 -62 72 0
10 4 18 10 18 6 0 7 22 4 58 -8 72 10 201 33 244 26 48 75 99 89 94 7 -3 14 0
17 7 2 6 23 17 48 23 34 9 38 12 17 13 -14 1 -32 3 -40 5 -7 2 -34 0 -59 -4z"/>
<path d="M4560 7109 c-45 -18 -100 -61 -120 -94 -30 -48 -26 -76 19 -118 66
-63 63 -113 -7 -119 -36 -3 -37 -4 -36 -41 2 -74 94 -152 191 -163 68 -9 126
10 174 55 22 22 50 42 62 45 34 9 60 54 65 111 3 38 0 54 -12 64 -14 12 -16
11 -16 -7 0 -11 -7 -28 -16 -37 -16 -15 -18 -15 -37 4 -20 20 -20 21 -2 75 16
47 17 60 6 96 -15 49 -49 85 -106 111 -51 23 -133 32 -165 18z m125 -125 c15
-33 15 -37 0 -61 -15 -22 -21 -25 -57 -19 -64 10 -81 23 -73 54 10 43 34 62
75 62 33 0 40 -4 55 -36z m7 -181 c28 -25 23 -68 -11 -92 -43 -31 -74 -27
-110 14 -39 45 -40 73 -3 81 15 3 32 7 37 9 27 9 70 3 87 -12z"/>
<path d="M6537 7045 c-39 -61 -102 -113 -156 -129 -31 -9 -39 -15 -28 -19 26
-10 154 28 198 59 57 39 63 55 38 98 -12 20 -22 36 -22 36 -1 0 -15 -20 -30
-45z"/>
<path d="M1485 7063 c-47 -24 -94 -73 -106 -111 -15 -45 -4 -108 26 -153 25
-39 95 -79 136 -79 34 0 124 44 162 79 30 29 32 35 30 92 -3 82 -44 140 -122
174 -43 19 -88 18 -126 -2z m106 -104 c17 -17 20 -30 16 -66 -8 -78 -57 -105
-112 -61 -24 18 -27 26 -22 61 10 75 74 110 118 66z"/>
<path d="M8843 7034 c-2 -7 -3 -23 -1 -36 3 -22 6 -23 86 -22 l82 1 -27 -46
c-75 -127 -113 -197 -113 -208 0 -8 14 -13 40 -13 30 0 46 7 66 28 17 17 24
21 21 10 -5 -15 -3 -16 21 -6 37 16 71 52 111 118 19 30 37 57 42 60 4 3 10
17 14 31 11 45 -42 80 -64 42 -8 -14 -9 -9 -5 18 l6 35 -137 0 c-99 0 -138 -3
-142 -12z"/>
<path d="M3667 6984 c-3 -11 -10 -64 -17 -119 -6 -55 -20 -158 -32 -230 -12
-71 -24 -149 -26 -172 l-4 -43 68 0 c38 0 85 -3 104 -6 31 -5 37 -2 52 25 37
68 169 90 241 41 135 -91 106 -337 -43 -369 -95 -20 -184 37 -209 133 l-11 46
-112 0 -111 0 7 -56 c14 -122 88 -219 214 -281 52 -26 66 -28 172 -28 109 0
118 2 182 33 123 60 207 180 229 326 8 53 16 76 25 76 23 0 16 40 -13 69 -16
16 -36 44 -46 63 -30 57 -106 129 -166 156 -108 50 -258 40 -328 -21 -19 -17
-33 -24 -32 -16 1 34 27 160 34 167 4 4 5 -2 1 -13 -3 -11 -1 -27 4 -35 8 -12
11 -11 16 8 4 12 11 22 16 22 5 0 6 5 3 10 -4 7 68 10 210 10 224 0 244 3 277
44 25 30 22 67 -7 110 -14 20 -25 41 -25 46 0 6 -115 10 -297 10 -164 0 -314
3 -334 6 -31 5 -38 3 -42 -12z"/>
<path d="M1120 6969 c-16 -29 -5 -63 25 -79 23 -12 28 -11 53 7 15 11 29 28
30 37 10 48 -85 79 -108 35z"/>
<path d="M5650 6969 c-24 -44 13 -101 45 -69 12 12 13 23 4 53 -11 41 -32 48
-49 16z m34 -25 c8 -29 3 -39 -13 -29 -13 8 -15 55 -2 55 5 0 12 -12 15 -26z"/>
<path d="M5812 6951 c-17 -54 -15 -61 12 -61 22 0 24 4 23 50 -1 60 -19 66
-35 11z"/>
<path d="M5968 6954 c-15 -32 0 -59 32 -59 35 0 47 28 27 59 -22 33 -44 33
-59 0z m49 -10 c8 -20 -13 -42 -27 -28 -12 12 -3 44 11 44 5 0 12 -7 16 -16z"/>
<path d="M1864 6933 c-1 -10 -4 -30 -9 -45 -5 -21 -3 -29 10 -34 26 -11 38 10
30 55 -7 40 -30 58 -31 24z"/>
<path d="M2037 6944 c-4 -4 -7 -25 -7 -46 0 -32 3 -38 21 -38 18 0 20 5 17 42
-3 39 -16 57 -31 42z"/>
<path d="M2361 6913 c-14 -51 -14 -53 9 -53 17 0 20 7 20 39 0 53 -16 61 -29
14z"/>
<path d="M2201 6921 c-17 -31 -13 -58 10 -64 23 -6 32 9 27 49 -4 34 -23 42
-37 15z"/>
<path d="M5036 6926 c-58 -22 -106 -74 -113 -124 -7 -55 2 -85 37 -126 61 -69
173 -70 255 -1 38 31 40 36 40 91 0 50 -4 64 -30 97 -50 63 -123 87 -189 63z
m100 -97 c22 -24 25 -89 5 -113 -20 -24 -87 -22 -101 3 -17 33 -13 109 8 120
28 17 68 12 88 -10z"/>
<path d="M5510 6916 c0 -22 3 -27 11 -19 8 8 8 16 0 30 -9 16 -10 14 -11 -11z"/>
<path d="M8456 6825 c-45 -16 -51 -23 -71 -89 -23 -75 -22 -76 38 -76 30 0 56
-2 59 -6 3 -3 0 -26 -8 -51 -8 -25 -11 -49 -8 -54 3 -5 38 -9 77 -9 81 0 107
-12 127 -59 29 -71 -18 -151 -88 -151 -57 0 -122 58 -81 72 14 5 18 92 6 105
-5 4 -14 0 -21 -10 -8 -11 -26 -17 -49 -17 -49 0 -86 -19 -93 -47 -8 -31 38
-124 77 -157 95 -80 311 -53 413 51 36 37 37 40 34 100 -4 68 -24 98 -82 130
-17 9 -48 25 -68 36 l-38 19 21 29 c23 33 39 45 39 29 0 -21 53 -5 72 21 19
26 19 26 -1 60 -12 19 -21 44 -21 55 0 14 -8 24 -22 28 -45 12 -272 5 -312 -9z
m169 -99 c41 -30 -22 -86 -96 -86 -36 0 -44 14 -28 52 19 45 84 63 124 34z"/>
<path d="M5327 6792 c-26 -29 -21 -58 16 -81 30 -19 33 -19 45 -4 17 23 15 68
-4 87 -20 21 -37 20 -57 -2z m47 -28 c10 -25 7 -34 -9 -34 -9 0 -15 9 -15 25
0 28 15 34 24 9z"/>
<path d="M5971 6784 c-27 -34 -26 -49 1 -68 31 -22 45 -20 64 10 16 24 16 27
-3 51 -27 37 -38 38 -62 7z m47 -30 c-4 -23 -26 -30 -34 -10 -8 20 15 51 29
37 5 -5 7 -17 5 -27z"/>
<path d="M5645 6780 c-26 -29 -10 -75 25 -75 20 0 26 6 28 27 3 28 -13 68 -27
68 -4 0 -16 -9 -26 -20z m40 -35 c0 -10 -6 -20 -12 -22 -8 -3 -13 5 -13 22 0
17 5 25 13 23 6 -3 12 -13 12 -23z"/>
<path d="M5506 6775 c-16 -44 0 -102 26 -93 11 5 13 18 9 54 -6 48 -23 68 -35
39z"/>
<path d="M5810 6764 c-13 -34 -13 -40 6 -58 24 -25 34 -19 34 18 0 65 -22 88
-40 40z"/>
<path d="M2036 6731 c-19 -21 -21 -42 -4 -59 24 -24 38 -13 38 27 0 47 -11 57
-34 32z m21 -33 c-3 -8 -6 -5 -6 6 -1 11 2 17 5 13 3 -3 4 -12 1 -19z"/>
<path d="M2194 6726 c-9 -38 -1 -61 23 -64 25 -4 38 26 29 64 -8 32 -43 32
-52 0z"/>
<path d="M1852 6728 c-23 -23 -7 -68 25 -68 9 0 13 14 13 40 0 41 -14 52 -38
28z m25 -30 c-3 -8 -6 -5 -6 6 -1 11 2 17 5 13 3 -3 4 -12 1 -19z"/>
<path d="M2367 6734 c-4 -4 -7 -23 -7 -41 0 -32 2 -34 28 -31 24 3 27 7 27 38
0 28 -4 36 -20 38 -12 2 -24 0 -28 -4z"/>
<path d="M1396 6625 c20 -50 15 -136 -11 -189 -23 -46 -76 -91 -131 -112 l-39
-15 50 6 c44 5 144 33 122 35 -5 0 -1 7 8 16 9 9 19 29 22 45 3 16 9 29 13 29
4 0 7 8 6 17 0 12 7 19 22 21 12 2 22 9 22 15 0 6 7 1 16 -11 22 -32 71 -55
103 -47 71 18 93 90 45 152 -20 27 -32 33 -63 33 -38 0 -64 -19 -89 -65 -11
-20 -11 -20 -12 1 0 12 -12 29 -27 39 -14 10 -37 29 -50 44 l-23 26 16 -40z"/>
<path d="M1166 6611 c-3 -4 6 -6 19 -3 14 2 25 6 25 8 0 8 -39 4 -44 -5z"/>
<path d="M5326 6588 c-21 -29 -20 -41 3 -62 23 -21 60 -18 75 7 8 13 7 24 -4
45 -20 35 -53 40 -74 10z m67 -22 c7 -17 -18 -40 -33 -31 -5 3 -10 15 -10 26
0 23 35 27 43 5z"/>
<path d="M5972 6594 c-45 -31 -13 -94 40 -81 32 8 42 31 26 60 -20 39 -34 44
-66 21z m51 -28 c6 -15 -11 -36 -29 -36 -14 0 -27 28 -18 41 8 14 41 11 47 -5z"/>
<path d="M5646 6584 c-32 -32 -14 -84 30 -84 38 0 50 26 31 65 -18 38 -37 44
-61 19z m44 -19 c13 -16 6 -35 -15 -35 -18 0 -28 17 -21 35 7 19 20 19 36 0z"/>
<path d="M5496 6568 c-13 -49 -7 -68 19 -68 31 0 38 15 27 55 -10 37 -37 45
-46 13z"/>
<path d="M5822 6568 c-7 -7 -12 -25 -12 -40 0 -25 4 -28 31 -28 29 0 30 1 24
33 -11 51 -20 58 -43 35z m28 -28 c0 -11 -4 -20 -10 -20 -5 0 -10 9 -10 20 0
11 5 20 10 20 6 0 10 -9 10 -20z"/>
<path d="M2041 6556 c-7 -8 -11 -30 -9 -48 2 -25 8 -33 23 -33 16 0 21 8 23
36 4 42 -18 68 -37 45z m16 -48 c-3 -8 -6 -5 -6 6 -1 11 2 17 5 13 3 -3 4 -12
1 -19z"/>
<path d="M2206 6554 c-9 -8 -16 -29 -16 -45 0 -24 4 -29 25 -29 22 0 25 4 25
39 0 46 -12 58 -34 35z"/>
<path d="M1857 6553 c-13 -12 -7 -81 6 -86 30 -11 52 29 37 68 -9 24 -29 32
-43 18z m23 -54 c0 -11 -4 -17 -10 -14 -5 3 -10 13 -10 21 0 8 5 14 10 14 6 0
10 -9 10 -21z"/>
<path d="M2366 6544 c-11 -30 -6 -53 15 -64 36 -20 61 18 43 64 -3 9 -16 16
-29 16 -13 0 -26 -7 -29 -16z m41 -36 c-3 -8 -6 -5 -6 6 -1 11 2 17 5 13 3 -3
4 -12 1 -19z"/>
<path d="M1150 6541 c0 -7 -4 -9 -10 -6 -13 8 -13 -16 1 -35 9 -13 10 -13 6 1
-3 9 0 22 6 28 6 6 8 14 4 18 -4 3 -7 1 -7 -6z"/>
<path d="M5012 6533 c-61 -30 -86 -124 -38 -143 38 -14 38 -25 0 -59 -30 -26
-35 -36 -29 -59 15 -63 97 -111 168 -98 47 9 108 55 146 111 35 53 36 57 17
93 -8 15 -17 39 -20 54 -20 91 -152 147 -244 101z m118 -68 c19 -23 7 -49 -27
-59 -36 -10 -63 4 -63 33 0 38 64 57 90 26z m1 -125 c27 -15 25 -64 -3 -84
-53 -37 -104 -3 -99 66 2 25 66 37 102 18z"/>
<path d="M1230 6505 c-7 -8 -16 -12 -21 -9 -5 3 -9 0 -9 -5 0 -6 4 -11 8 -11
14 0 47 28 41 34 -3 4 -12 0 -19 -9z"/>
<path d="M4578 6479 c-38 -40 -39 -41 -33 -102 9 -96 13 -104 49 -126 75 -47
162 -7 185 83 12 50 13 84 1 46 -5 -17 -8 -19 -9 -7 -1 9 -6 17 -12 17 -8 0
-9 14 -5 44 6 40 4 46 -20 65 -18 14 -41 21 -72 21 -40 0 -50 -5 -84 -41z
m117 -40 c8 -25 8 -25 -33 -32 -37 -7 -53 12 -32 38 19 22 57 19 65 -6z m11
-104 c12 -66 -28 -84 -77 -35 -25 25 -28 33 -19 50 8 15 21 20 50 20 37 0 39
-2 46 -35z"/>
<path d="M9116 6492 c-2 -4 -1 -14 4 -21 11 -19 41 -6 34 14 -6 16 -29 20 -38
7z"/>
<path d="M3433 6384 c-8 -20 8 -36 26 -25 15 10 8 41 -9 41 -6 0 -13 -7 -17
-16z"/>
<path d="M5321 6374 c-27 -34 -26 -38 6 -64 34 -26 54 -22 71 13 12 24 11 31
-2 53 -21 31 -49 31 -75 -2z m59 -24 c0 -23 -4 -30 -20 -30 -22 0 -23 3 -14
38 9 33 34 28 34 -8z"/>
<path d="M5647 6382 c-22 -24 -21 -55 1 -75 24 -22 35 -21 55 1 22 24 21 55
-1 75 -24 22 -35 21 -55 -1z m51 -29 c-4 -32 -38 -46 -38 -16 0 20 18 43 33
43 4 0 7 -12 5 -27z"/>
<path d="M5959 6373 c-16 -44 3 -75 43 -71 25 2 35 9 42 31 13 37 -2 61 -43
65 -26 3 -33 -1 -42 -25z m71 -7 c0 -16 -26 -46 -41 -46 -10 0 -12 21 -3 44 8
20 44 21 44 2z"/>
<path d="M5508 6379 c-31 -18 -16 -99 17 -99 11 0 15 13 15 55 0 57 -3 61 -32
44z"/>
<path d="M5814 6376 c-3 -8 -4 -29 -2 -48 2 -25 8 -34 24 -36 26 -4 32 11 26
61 -3 28 -9 37 -23 37 -11 0 -22 -6 -25 -14z m33 -38 c-3 -7 -5 -2 -5 12 0 14
2 19 5 13 2 -7 2 -19 0 -25z"/>
<path d="M1504 6360 c-69 -14 -111 -37 -163 -85 -94 -88 -133 -169 -152 -314
-9 -72 -8 -101 6 -176 20 -107 42 -161 95 -232 46 -61 103 -102 180 -130 90
-34 145 -37 233 -13 100 26 141 53 250 162 l89 88 11 70 c11 70 -3 158 -23
145 -4 -3 -23 10 -42 28 -18 19 -55 42 -83 52 -27 9 -88 36 -135 58 -107 51
-185 60 -248 28 -50 -25 -59 -15 -33 37 44 86 154 119 251 74 26 -12 79 -23
128 -28 l82 -7 0 25 c0 32 -51 109 -95 143 -66 50 -143 77 -230 81 -44 2 -98
-1 -121 -6z m131 -430 c8 0 30 -14 50 -32 133 -116 89 -328 -68 -328 -62 0
-134 37 -158 82 -7 14 -6 16 6 12 8 -3 12 -10 9 -15 -3 -5 0 -9 6 -9 7 0 8 21
4 64 -10 99 -1 130 59 187 29 28 57 47 65 44 7 -3 20 -5 27 -5z"/>
<path d="M1860 6359 c0 -20 21 -49 35 -49 20 0 19 46 -1 54 -23 9 -34 7 -34
-5z"/>
<path d="M2202 6358 c-20 -20 -15 -66 9 -73 24 -8 39 8 39 41 0 19 -17 44 -30
44 -3 0 -11 -5 -18 -12z"/>
<path d="M2371 6357 c-6 -6 -11 -23 -11 -37 0 -46 43 -69 55 -29 14 44 -17 93
-44 66z"/>
<path d="M2562 6358 c-18 -18 -15 -43 8 -63 16 -15 22 -15 35 -5 19 16 19 44
-1 64 -19 19 -26 20 -42 4z"/>
<path d="M9013 6363 c-18 -7 -16 -40 3 -51 41 -23 78 17 41 43 -23 16 -25 16
-44 8z"/>
<path d="M2030 6325 c0 -23 6 -38 15 -42 21 -7 25 -2 32 41 5 34 4 36 -21 36
-23 0 -26 -4 -26 -35z"/>
<path d="M2925 6319 c-247 -36 -403 -195 -430 -436 l-7 -62 177 -3 c176 -3
177 -3 186 20 5 12 14 22 20 22 6 0 8 7 5 16 -3 8 -2 13 3 10 5 -3 15 1 22 10
12 14 14 14 19 -2 5 -13 14 -5 42 39 19 31 38 53 42 50 4 -4 4 0 0 10 -4 13
-1 17 14 17 12 0 24 5 27 10 10 16 78 11 115 -9 55 -29 82 -83 77 -158 -4 -74
-25 -109 -82 -137 -32 -16 -59 -20 -146 -18 l-106 1 -1 -133 -2 -132 72 9
c126 16 236 -22 274 -95 10 -20 17 -56 17 -94 0 -116 -78 -203 -188 -212 -30
-2 -65 -2 -79 2 -32 8 -70 63 -92 133 -16 51 -44 81 -63 69 -10 -7 -21 17 -21
45 0 18 -9 19 -185 19 l-184 0 5 -52 c21 -210 96 -330 265 -425 107 -61 206
-85 354 -85 112 0 127 2 229 36 92 32 115 44 152 82 24 24 49 44 55 44 39 0
168 149 170 195 0 11 7 -7 14 -41 27 -124 94 -213 188 -249 51 -19 163 -17
207 4 44 21 75 41 65 41 -7 0 -7 3 0 8 26 18 95 121 95 140 0 12 4 22 8 22 12
0 -3 131 -21 172 -43 101 -154 173 -267 172 -119 -1 -206 -58 -254 -167 l-22
-49 -13 69 c-21 112 -49 161 -147 259 -49 49 -98 94 -109 100 -18 11 -18 11 6
7 20 -4 35 3 60 27 19 17 27 29 19 25 -8 -4 -6 1 5 9 86 69 115 115 115 183 0
56 -25 153 -45 172 -9 9 -15 12 -14 6 6 -34 -4 -33 -15 1 -16 52 -83 142 -139
188 -63 51 -162 93 -263 111 -94 16 -138 17 -229 4z m652 -391 c-3 -7 -5 -2
-5 12 0 14 2 19 5 13 2 -7 2 -19 0 -25z m475 -700 c35 -17 71 -78 76 -127 12
-133 -121 -218 -230 -146 -46 30 -73 84 -64 128 7 37 58 101 109 138 40 29 64
31 109 7z"/>
<path d="M2190 6181 c-41 -21 -77 -70 -86 -116 -15 -81 44 -173 125 -195 87
-23 186 39 212 134 12 44 -5 91 -50 139 -54 59 -134 74 -201 38z m121 -73 c6
-12 14 -49 17 -84 4 -59 3 -63 -22 -80 -34 -22 -74 -10 -94 26 -17 32 -8 116
14 141 24 26 70 25 85 -3z"/>
<path d="M6244 6192 c-34 -23 -12 -82 31 -82 34 0 60 41 45 69 -11 21 -54 28
-76 13z"/>
<path d="M5330 6171 c-15 -29 -12 -56 8 -74 24 -22 45 -21 66 2 18 20 15 51
-6 79 -16 19 -56 14 -68 -7z m54 -17 c12 -32 6 -54 -14 -54 -16 0 -20 7 -20
35 0 37 22 49 34 19z"/>
<path d="M5966 6177 c-26 -19 -18 -68 16 -86 24 -14 28 -14 47 3 53 48 -6 125
-63 83z m49 -43 c0 -19 -5 -29 -15 -29 -16 0 -25 28 -16 51 10 25 31 10 31
-22z"/>
<path d="M8964 6179 c-37 -10 -91 -67 -100 -105 -9 -34 11 -74 35 -74 11 0 23
-4 26 -10 10 -16 -83 -12 -120 5 -18 9 -42 25 -53 35 -22 20 -152 95 -152 88
0 -3 25 -22 55 -42 115 -80 183 -213 192 -376 8 -148 -30 -263 -127 -379 -88
-106 -280 -183 -412 -167 -52 7 -57 10 -63 37 -4 16 -4 43 0 60 l7 31 -74 -6
c-141 -11 -803 -17 -789 -8 11 8 11 10 0 14 -11 4 -11 8 -3 19 13 16 10 92 -5
130 -17 46 -142 180 -185 200 -92 42 -213 6 -261 -75 -35 -60 -33 -73 18 -86
23 -6 52 -15 63 -20 20 -8 22 -6 21 30 -1 52 16 70 67 70 82 0 118 -83 47
-106 -18 -6 -38 -18 -43 -27 -5 -10 -8 -17 -6 -18 2 0 23 -6 48 -12 38 -10 45
-16 48 -39 2 -19 -5 -36 -22 -53 -49 -49 -156 -24 -156 37 0 23 -30 38 -79 38
-47 0 -52 -14 -26 -78 31 -73 102 -121 180 -122 39 0 153 21 186 35 10 3 22
26 28 51 14 53 35 50 25 -4 -4 -20 -24 -113 -46 -207 -146 -621 -169 -781
-133 -933 47 -198 217 -378 414 -438 70 -21 188 -27 261 -14 36 7 92 15 125
20 33 4 77 12 96 19 37 12 112 84 100 97 -3 4 0 4 6 0 7 -4 21 -2 30 3 10 6
14 11 9 11 -5 0 9 12 30 26 21 15 41 30 42 35 2 5 8 7 13 4 4 -3 20 2 34 11
19 12 36 15 70 10 37 -6 46 -4 52 10 4 12 -2 25 -21 41 -27 23 -27 23 -11 57
22 46 42 52 74 22 56 -52 110 -71 201 -71 77 0 89 3 135 31 28 17 58 33 68 37
11 4 21 16 24 27 3 11 9 17 14 15 4 -3 16 7 26 22 10 15 25 35 35 44 22 20 32
85 23 145 -6 41 -16 57 -78 121 -93 96 -140 124 -221 130 -120 10 -219 -40
-275 -139 l-28 -49 -7 40 c-4 29 -17 50 -48 80 -27 25 -46 37 -52 31 -6 -6
-20 9 -37 39 -40 70 -118 151 -185 191 -78 47 -168 69 -286 69 -105 1 -173
-17 -243 -64 -46 -32 -49 -31 -30 6 10 19 22 29 31 25 9 -4 29 18 60 64 25 39
51 70 57 70 6 0 18 6 26 14 9 8 48 23 87 35 61 18 97 21 263 21 l191 0 1 43
c1 23 4 32 6 20 6 -31 20 -29 28 5 3 15 14 42 25 59 l19 32 108 4 c59 3 123 8
142 12 l34 8 -28 -37 c-37 -48 -54 -100 -55 -164 l0 -53 45 -20 c54 -24 65
-19 65 26 0 42 9 65 25 65 6 0 20 9 30 20 10 11 24 20 32 20 7 0 13 4 13 8 0
14 77 45 94 39 8 -3 25 -25 37 -48 17 -35 20 -55 17 -123 -6 -134 -53 -195
-141 -183 -48 7 -81 37 -103 95 -17 44 -18 44 -57 38 -22 -4 -44 -9 -49 -12
-23 -14 6 -101 50 -147 44 -47 100 -70 167 -71 63 0 165 28 165 46 0 6 3 9 6
5 16 -16 94 45 118 90 24 48 27 198 4 243 -25 50 -45 73 -57 66 -6 -4 -17 6
-25 21 -30 59 -99 101 -181 113 l-50 7 40 8 c38 8 48 13 85 47 17 15 20 15 42
-9 44 -48 109 -64 165 -41 15 6 31 11 36 10 4 -1 7 1 7 6 0 4 12 8 26 9 42 2
59 27 58 84 0 28 -5 54 -11 57 -6 4 -11 20 -11 37 0 22 -10 38 -43 67 -24 21
-56 43 -71 49 -29 12 -35 23 -18 34 5 3 7 12 4 20 -4 9 0 12 14 8 13 -3 26 3
37 19 l17 23 -5 -23 c-4 -15 -1 -22 6 -19 19 6 18 50 -1 76 -18 22 -35 26 -87
19 -15 -2 -21 4 -23 22 -2 14 -9 31 -14 38 -8 9 2 12 44 12 33 0 68 7 91 19
20 10 34 15 31 10 -8 -14 14 -11 46 6 37 19 60 52 60 86 0 28 -39 94 -56 94
-5 0 -22 10 -38 22 l-28 22 28 12 c58 23 77 34 81 47 7 17 -25 52 -48 52 -10
0 -23 9 -29 21 -14 26 -85 59 -125 58 -16 0 -44 -5 -61 -10z m104 -82 c15 -12
16 -49 0 -65 -7 -7 -26 -12 -43 -12 -39 0 -55 16 -55 52 0 42 57 57 98 25z
m-143 -147 c3 -5 16 -10 27 -10 29 0 16 -10 -25 -19 -32 -8 -33 -7 -29 15 5
25 16 31 27 14z m159 -36 c20 -53 -4 -84 -66 -84 -37 0 -36 -2 -29 83 1 23 86
25 95 1z m23 -520 c-3 -3 -1 -18 4 -33 10 -24 9 -25 -7 -9 -15 15 -14 48 2 48
4 0 5 -3 1 -6z m-109 -122 c16 -2 22 2 23 15 0 10 3 13 5 6 9 -22 -16 -54 -39
-51 -29 4 -51 47 -34 66 10 12 13 11 17 -9 4 -15 14 -25 28 -27z m-1 -409 c-2
-21 -4 -6 -4 32 0 39 2 55 4 38 2 -18 2 -50 0 -70z m-1176 -379 c65 -19 129
-80 147 -141 27 -91 10 -204 -43 -285 -69 -104 -262 -116 -345 -22 -30 35 -38
50 -20 39 6 -4 7 2 2 16 -10 27 13 210 30 241 7 13 39 53 70 89 32 37 54 69
51 73 -12 12 54 6 108 -10z m959 -156 c24 -39 27 -116 6 -156 -18 -34 -54 -68
-83 -76 -22 -7 -86 14 -97 32 -9 16 19 155 38 185 10 15 30 30 45 33 14 3 31
7 36 9 25 8 37 3 55 -27z"/>
<path d="M5500 6130 c0 -47 2 -50 25 -50 21 0 25 5 25 28 0 29 -24 72 -41 72
-5 0 -9 -22 -9 -50z"/>
<path d="M5640 6159 c-9 -16 -8 -26 5 -45 8 -13 22 -24 30 -24 20 0 38 37 31
66 -8 31 -50 33 -66 3z m54 -15 c7 -18 0 -34 -15 -34 -5 0 -9 11 -9 25 0 28
15 34 24 9z"/>
<path d="M5800 6131 c0 -39 12 -53 38 -43 7 2 12 21 12 43 0 35 -3 39 -25 39
-22 0 -25 -4 -25 -39z"/>
<path d="M7411 6096 c7 -15 15 -23 17 -16 3 7 -3 19 -13 28 -15 16 -16 15 -4
-12z"/>
<path d="M5123 6022 c71 -74 106 -138 126 -230 26 -124 4 -280 -55 -386 -15
-27 -53 -77 -86 -111 -88 -94 -199 -146 -343 -159 -22 -2 19 -2 90 1 72 2 140
6 152 9 18 5 23 0 32 -33 6 -21 11 -64 11 -95 l0 -58 103 0 102 -1 -46 -42
-46 -42 34 -18 c19 -9 42 -17 52 -17 21 0 31 -26 31 -82 l0 -38 79 0 78 0 13
45 c9 33 18 45 32 45 12 0 24 12 33 33 14 31 13 33 -21 65 -18 18 -34 38 -34
44 0 11 146 5 201 -8 25 -5 25 -4 37 70 17 107 7 126 -65 126 -23 0 -48 3 -57
6 -18 7 -22 59 -6 69 5 3 15 16 21 27 l11 21 -28 -20 c-45 -31 -58 -37 -51
-26 4 6 1 16 -6 22 -8 6 -20 30 -28 53 -22 70 -34 77 -129 81 -57 2 -78 6 -63
11 11 4 23 15 25 24 3 10 6 22 7 27 2 6 8 19 14 30 19 33 36 88 31 97 -3 4 -3
8 -1 8 3 0 17 -20 30 -43 37 -63 99 -115 186 -155 117 -55 196 -48 339 31 44
25 87 67 67 67 -4 0 0 7 7 15 27 30 34 41 48 74 14 36 22 199 9 206 -4 3 -5
13 -2 24 3 13 -18 41 -74 98 -96 99 -156 127 -274 127 -67 1 -83 -3 -151 -37
-83 -41 -128 -90 -168 -182 l-20 -47 -22 28 c-12 16 -25 31 -28 34 -3 3 -19
28 -35 55 -34 59 -145 177 -195 206 -29 17 -23 9 33 -49z m130 -867 c28 -20
16 -19 -27 2 -32 15 -37 15 -60 0 -15 -10 -43 -17 -68 -16 l-43 1 35 7 c19 4
48 14 65 23 31 17 56 12 98 -17z"/>
<path d="M7431 6020 c-2 -62 -30 -119 -82 -164 l-44 -38 40 17 c22 10 58 22
80 27 69 17 66 15 54 45 -6 15 -20 57 -29 93 l-18 65 -1 -45z"/>
<path d="M7200 6021 c0 -36 22 -55 55 -47 19 5 25 13 25 35 0 30 -14 41 -56
41 -20 0 -24 -5 -24 -29z"/>
<path d="M7693 6025 c-13 -14 -8 -45 7 -45 15 0 32 30 26 45 -7 18 -17 19 -33
0z"/>
<path d="M8241 5933 c-65 -23 -136 -98 -155 -164 -20 -67 -20 -111 0 -178 18
-62 78 -133 139 -163 l40 -20 -38 39 c-30 31 -39 50 -43 89 -8 63 18 204 46
249 34 55 146 145 182 146 22 0 22 1 3 9 -32 14 -126 10 -174 -7z"/>
<path d="M983 5924 c-9 -23 13 -40 32 -24 8 7 15 19 15 26 0 19 -39 18 -47 -2z"/>
<path d="M4665 5929 c-138 -33 -221 -206 -170 -359 17 -51 70 -121 106 -141
16 -8 16 -5 -4 28 -20 34 -22 50 -20 146 3 130 20 171 98 246 62 59 89 72 142
66 l38 -5 -40 14 c-46 17 -93 18 -150 5z"/>
<path d="M3810 5850 c-36 -9 -84 -54 -77 -74 1 -6 17 -18 34 -26 32 -15 53
-46 53 -79 0 -20 -39 -51 -64 -51 -21 0 -30 -37 -16 -70 13 -32 70 -60 121
-60 25 0 32 6 45 35 18 44 19 42 -16 49 -34 6 -38 22 -14 67 10 20 14 51 13
91 -2 47 1 63 14 73 18 13 22 31 10 38 -19 11 -71 14 -103 7z"/>
<path d="M4009 5853 c-12 -3 -18 -19 -21 -63 -3 -44 -10 -66 -27 -84 -15 -16
-21 -33 -19 -52 3 -28 5 -29 62 -32 48 -3 59 -7 63 -23 4 -14 14 -19 42 -19
75 0 81 45 14 107 -41 37 -46 46 -35 61 26 37 34 61 28 86 -6 23 -11 26 -49
25 -23 -1 -49 -3 -58 -6z"/>
<path d="M1061 5716 c-9 -11 -10 -20 -1 -36 13 -24 38 -23 53 1 23 37 -25 68
-52 35z"/>
<path d="M2210 5722 c-46 -6 -81 -25 -95 -53 -28 -53 -14 -99 29 -99 17 0 14
-6 -17 -34 -41 -38 -43 -43 -23 -90 27 -64 116 -98 185 -70 84 33 109 117 52
175 l-30 29 25 16 c73 48 -18 139 -126 126z m65 -97 c0 -27 -4 -30 -34 -33
-31 -3 -50 9 -51 30 0 17 35 39 59 36 22 -2 26 -8 26 -33z m3 -107 c7 -7 12
-24 12 -38 0 -33 -17 -50 -51 -50 -48 0 -79 67 -41 89 23 14 65 14 80 -1z"/>
<path d="M7791 5643 c-15 -59 -62 -146 -105 -192 l-31 -35 31 25 c59 46 161
249 125 249 -5 0 -14 -21 -20 -47z"/>
<path d="M4015 5570 c-12 -19 -8 -72 6 -81 27 -17 77 -11 84 11 14 43 -68 106
-90 70z"/>
<path d="M6121 5451 c-28 -28 -27 -37 9 -72 32 -33 63 -33 88 -1 16 21 15 36
-5 60 -28 32 -67 38 -92 13z"/>
<path d="M1126 5416 c-105 -45 -146 -104 -146 -216 0 -139 82 -234 214 -247
38 -4 66 1 108 17 63 23 95 55 135 133 21 43 25 60 20 107 -8 96 -50 156 -135
199 -67 34 -126 36 -196 7z m153 -21 c61 -21 97 -50 127 -101 34 -59 37 -132
6 -190 -83 -161 -301 -167 -377 -10 -32 66 -40 121 -25 176 15 57 42 86 105
116 58 27 105 30 164 9z"/>
<path d="M1575 5310 c-50 -40 -85 -88 -85 -117 0 -35 27 -94 58 -126 51 -53
145 -56 216 -5 16 11 25 15 21 9 -5 -9 -1 -9 14 0 30 19 65 119 42 119 -6 0
-19 17 -30 38 -53 103 -161 141 -236 82z"/>
<path d="M5903 5260 c-44 -14 -116 -89 -149 -155 -22 -46 -26 -64 -21 -105 22
-181 214 -279 382 -195 46 23 67 41 88 77 50 81 47 199 -5 279 -47 71 -209
125 -295 99z m158 -159 c24 -25 29 -37 29 -80 0 -68 -39 -115 -94 -115 -106 0
-125 160 -25 211 37 19 58 16 90 -16z"/>
<path d="M1995 5244 c-71 -37 -117 -103 -117 -170 0 -124 82 -206 207 -208 52
-1 68 4 112 32 70 45 75 52 80 124 6 71 -7 113 -53 167 -54 64 -162 90 -229
55z"/>
<path d="M6367 5234 c-25 -25 8 -70 43 -59 32 10 24 59 -10 63 -14 2 -29 0
-33 -4z"/>
<path d="M6583 5096 c-110 -36 -228 -139 -262 -231 -47 -125 -45 -258 4 -356
34 -65 118 -148 186 -182 133 -66 306 -55 430 29 28 19 55 34 60 34 5 0 9 5 9
11 0 5 4 8 8 5 15 -9 90 32 108 59 25 39 44 136 44 232 0 82 0 82 -38 120 -21
21 -55 64 -76 95 -44 66 -117 126 -201 165 -72 32 -202 42 -272 19z m217 -58
c101 -30 203 -116 241 -201 18 -41 23 -70 23 -142 1 -82 -2 -95 -31 -151 -41
-78 -125 -156 -201 -185 -89 -34 -191 -31 -276 9 -78 37 -152 107 -186 177
-21 42 -25 64 -25 145 0 82 4 103 27 152 33 71 106 150 164 178 77 38 176 44
264 18z"/>
<path d="M6646 4738 c-35 -50 -3 -138 50 -138 62 0 97 91 54 138 -28 30 -83
30 -104 0z"/>
<path d="M4523 5072 c-96 -2 -104 -4 -119 -26 -22 -34 -38 -145 -29 -202 10
-68 65 -124 122 -124 59 0 102 18 119 51 31 62 15 128 -41 165 -19 12 -42 15
-96 12 l-71 -4 36 33 c33 30 41 33 100 33 67 0 90 13 84 47 -3 16 -13 18 -105
15z m31 -183 c33 -26 33 -49 0 -88 -30 -36 -54 -39 -79 -11 -18 20 -25 86 -11
109 11 18 61 13 90 -10z"/>
<path d="M8356 4972 c-9 -14 12 -35 28 -29 23 9 20 37 -3 37 -11 0 -22 -4 -25
-8z"/>
<path d="M1420 4904 c-132 -24 -229 -93 -282 -202 -31 -62 -33 -74 -33 -167 0
-87 3 -107 26 -155 37 -77 107 -145 187 -183 89 -42 194 -45 292 -8 156 59
260 243 229 403 -27 135 -113 242 -231 286 -56 21 -146 33 -188 26z m164 -94
c58 -22 129 -88 162 -151 28 -55 30 -163 4 -233 -38 -101 -146 -182 -256 -193
-108 -11 -233 57 -289 158 -26 48 -30 63 -30 134 1 94 22 149 81 214 59 66
112 89 211 90 40 1 82 -6 117 -19z"/>
<path d="M2340 4876 c0 -45 22 -64 55 -46 51 27 38 80 -20 80 -33 0 -35 -2
-35 -34z"/>
<path d="M4906 4881 c-10 -16 5 -41 26 -41 14 0 19 6 16 22 -3 24 -32 36 -42
19z"/>
<path d="M1020 4830 c0 -23 22 -27 39 -7 13 16 5 27 -21 27 -11 0 -18 -7 -18
-20z"/>
<path d="M9084 4826 c-15 -12 -17 -19 -8 -32 18 -30 40 -39 58 -25 22 18 20
48 -3 61 -25 13 -23 13 -47 -4z"/>
<path d="M4930 4770 c0 -5 5 -10 10 -10 6 0 10 5 10 10 0 6 -4 10 -10 10 -5 0
-10 -4 -10 -10z"/>
<path d="M3490 4683 l0 -83 33 0 c18 0 57 8 87 19 30 10 81 22 113 26 l59 7
-71 -84 c-73 -86 -162 -235 -179 -300 l-10 -38 108 0 c74 0 111 4 118 13 6 6
14 45 17 85 7 63 13 80 48 130 48 66 52 70 94 100 18 13 42 36 54 53 20 28 20
34 9 92 l-13 62 -233 0 -234 0 0 -82z"/>
<path d="M8351 4747 c-9 -11 -8 -17 4 -27 19 -16 47 -5 43 17 -4 23 -31 28
-47 10z"/>
<path d="M2570 4705 c-7 -9 -13 -34 -13 -57 0 -50 24 -74 57 -56 42 22 48 60
15 102 -23 30 -41 33 -59 11z m50 -39 c0 -26 -14 -41 -29 -32 -13 8 0 56 15
56 8 0 14 -10 14 -24z"/>
<path d="M3301 4694 c-12 -15 -21 -34 -21 -44 0 -19 36 -70 50 -70 37 0 53 78
24 118 -20 28 -28 28 -53 -4z m39 -41 c0 -26 -3 -34 -11 -26 -9 9 -3 63 7 63
2 0 4 -17 4 -37z"/>
<path d="M2165 4688 c-2 -13 -6 -189 -7 -393 -3 -331 -5 -373 -21 -402 -22
-41 -51 -56 -106 -56 -50 0 -71 19 -71 66 0 16 -8 45 -17 64 -14 31 -18 34
-29 19 -11 -15 -12 -15 -18 0 -3 8 -6 29 -6 45 l0 29 -125 0 c-142 0 -130 10
-125 -100 6 -153 115 -286 265 -325 70 -18 178 -20 243 -3 66 16 202 108 202
137 0 9 36 41 78 70 11 8 24 26 28 40 10 39 8 112 -4 143 -8 19 -9 108 -3 300
5 150 6 298 2 328 l-6 55 -137 3 c-136 3 -138 2 -143 -20z"/>
<path d="M2827 4680 c-39 -56 34 -121 75 -68 23 30 23 51 0 71 -25 23 -58 21
-75 -3z m68 -10 c3 -6 -1 -17 -9 -26 -15 -14 -16 -13 -16 10 0 26 13 35 25 16z"/>
<path d="M3097 4674 c-4 -4 -7 -24 -7 -45 0 -34 3 -38 31 -44 17 -4 33 -4 36
-1 3 3 2 25 -3 48 -7 32 -14 44 -29 46 -12 2 -24 0 -28 -4z"/>
<path d="M5974 4661 c-37 -22 -74 -67 -74 -89 0 -9 12 -28 26 -43 l25 -27 -25
-25 c-71 -71 24 -183 137 -162 40 8 70 32 91 73 26 50 21 70 -21 89 -21 10
-40 19 -42 20 -3 2 12 17 32 34 20 17 37 38 37 48 0 28 -31 62 -74 82 -52 24
-73 24 -112 0z m106 -47 c52 -21 52 -46 2 -79 -38 -25 -85 -30 -109 -12 -21
15 -15 56 12 82 28 29 41 30 95 9z m14 -144 c33 -12 33 -40 0 -79 -18 -22 -35
-31 -55 -31 -56 0 -101 74 -67 108 14 14 87 16 122 2z"/>
<path d="M5099 4632 c-56 -36 -99 -111 -99 -173 0 -48 36 -134 66 -160 24 -20
79 -39 115 -39 37 0 109 32 136 62 28 30 53 99 53 147 0 27 3 32 10 21 8 -12
10 -9 10 13 0 19 -14 42 -42 73 -81 88 -167 108 -249 56z"/>
<path d="M4190 4630 c-5 -10 -10 -28 -10 -39 0 -43 -7 -46 -86 -43 l-75 4 3
-44 3 -43 105 1 c126 2 399 21 426 29 31 10 -34 -41 -91 -71 -27 -15 -70 -41
-95 -58 -25 -18 -74 -44 -110 -59 -65 -28 -65 -28 -90 -94 -21 -57 -31 -70
-65 -87 -22 -12 -40 -28 -40 -36 0 -21 109 -25 163 -7 51 18 62 8 62 -55 0
-36 5 -53 21 -69 21 -21 28 -22 143 -16 134 7 216 29 267 72 17 14 35 25 40
25 17 0 62 45 75 77 19 45 18 67 -7 94 -11 13 -18 18 -14 12 3 -7 2 -13 -2
-13 -5 0 -15 16 -21 35 -16 43 -90 109 -148 131 -24 9 -44 20 -44 25 0 6 122
84 168 107 8 4 14 12 14 17 0 6 4 15 10 22 6 8 5 19 -2 33 -7 12 -10 33 -7 46
l4 23 -293 0 c-279 1 -294 0 -304 -19z m396 -383 c45 -39 30 -133 -27 -162
-38 -20 -108 -19 -131 2 -22 20 -24 82 -3 123 31 60 113 78 161 37z"/>
<path d="M5632 4638 c3 -7 15 -15 27 -16 16 -3 22 1 19 10 -3 7 -15 15 -27 16
-16 3 -22 -1 -19 -10z"/>
<path d="M8385 4614 c-17 -18 -19 -30 -5 -39 17 -11 50 5 50 25 0 24 -26 33
-45 14z"/>
<path d="M9030 4580 c-26 -26 -25 -60 1 -94 19 -24 26 -26 99 -26 83 0 107 12
96 47 -6 19 -59 56 -68 48 -2 -3 -15 6 -28 20 -29 31 -72 33 -100 5z"/>
<path d="M5761 4559 c6 -11 8 -28 4 -37 -6 -15 -5 -16 10 -1 17 17 12 44 -11
53 -12 5 -12 2 -3 -15z"/>
<path d="M5577 4496 c-7 -19 12 -36 40 -36 24 0 27 7 17 34 -8 20 -50 21 -57
2z"/>
<path d="M2571 4476 c-17 -21 -10 -87 12 -100 25 -16 71 12 75 44 6 49 -59 90
-87 56z m54 -36 c0 -18 -6 -26 -22 -28 -20 -3 -23 1 -23 28 0 27 3 31 23 28
16 -2 22 -10 22 -28z"/>
<path d="M2831 4466 c-28 -30 -25 -66 8 -82 54 -27 92 28 56 82 -20 30 -36 30
-64 0z m49 -10 c0 -20 -11 -46 -19 -46 -4 0 -6 14 -3 30 4 30 22 43 22 16z"/>
<path d="M3302 4467 c-27 -29 -28 -57 -2 -85 25 -26 33 -27 54 -6 23 23 20 67
-7 92 l-23 22 -22 -23z m29 -54 c-9 -15 -10 -12 -10 17 0 29 1 32 10 18 7 -12
7 -24 0 -35z"/>
<path d="M3086 4454 c-21 -20 -21 -70 0 -78 28 -11 52 -6 58 10 23 59 -19 108
-58 68z"/>
<path d="M9109 4271 c-20 -16 -21 -21 -10 -35 16 -19 42 -21 59 -4 17 17 15
36 -7 48 -15 7 -25 5 -42 -9z"/>
<path d="M6330 4267 c-52 -17 -105 -76 -131 -148 -13 -34 -25 -57 -27 -51 -2
7 -13 12 -25 13 -13 0 -39 21 -66 52 -25 29 -56 61 -70 72 -14 11 -5 -5 21
-34 114 -131 151 -283 110 -441 -38 -144 -157 -260 -319 -310 -77 -24 -50 -36
46 -20 71 12 99 21 176 55 37 16 97 36 100 33 2 -2 12 -21 23 -44 25 -50 54
-70 128 -89 90 -23 171 -2 247 65 19 16 38 26 42 22 5 -4 5 -1 1 6 -4 6 -2 12
3 12 6 0 11 6 11 14 0 7 7 19 15 26 23 19 19 91 -5 118 -11 12 -20 25 -20 30
0 21 -84 102 -126 123 -40 19 -56 21 -125 16 -59 -5 -77 -3 -75 6 2 7 10 34
16 60 10 38 16 47 29 41 26 -11 117 -17 154 -10 37 7 134 67 185 114 27 25 32
37 32 76 l0 46 101 0 102 0 -27 -32 c-53 -65 -100 -144 -133 -223 -18 -44 -33
-86 -33 -93 0 -9 14 -12 51 -10 51 3 52 3 64 44 15 50 74 151 107 180 13 12
33 25 45 28 48 15 122 143 115 200 -5 44 -13 44 -95 10 -50 -22 -84 -28 -180
-33 -117 -6 -124 -8 -141 -46 -3 -5 -11 -2 -19 8 -8 9 -19 17 -26 17 -6 0 -27
15 -45 34 -68 67 -152 90 -236 63z m150 -214 c0 -12 -10 -29 -22 -38 -22 -15
-23 -14 -29 7 -3 13 -1 35 5 49 8 23 12 25 28 16 10 -7 18 -22 18 -34z"/>
<path d="M6437 4039 c7 -7 15 -10 18 -7 3 3 -2 9 -12 12 -14 6 -15 5 -6 -5z"/>
<path d="M2562 4258 c-21 -21 -14 -82 11 -106 29 -27 38 -27 71 -1 32 25 36
77 8 102 -22 20 -73 22 -90 5z m66 -17 c20 -12 11 -56 -12 -56 -23 0 -41 27
-33 49 7 18 24 20 45 7z"/>
<path d="M3285 4250 c-26 -28 -4 -100 31 -100 40 0 59 73 26 103 -24 22 -35
21 -57 -3z m55 -46 c0 -8 -7 -14 -15 -14 -10 0 -15 10 -15 26 0 22 2 25 15 14
8 -7 15 -19 15 -26z"/>
<path d="M2828 4249 c-25 -14 -24 -73 2 -99 39 -39 90 -17 90 39 0 27 -17 27
-25 0 -4 -11 -12 -18 -18 -16 -15 5 -20 38 -8 56 8 13 12 13 27 0 16 -13 17
-12 11 4 -4 10 -7 21 -7 23 0 8 -55 3 -72 -7z"/>
<path d="M3077 4244 c-12 -12 -8 -69 6 -87 6 -9 23 -18 37 -19 24 -3 25 -1 25
52 0 54 -1 55 -30 58 -17 2 -34 0 -38 -4z m47 -49 c-4 -8 -8 -15 -10 -15 -2 0
-4 7 -4 15 0 8 4 15 10 15 5 0 7 -7 4 -15z"/>
<path d="M4980 4152 c-55 -30 -75 -65 -74 -127 4 -174 185 -239 261 -95 28 52
29 92 4 145 -39 85 -118 117 -191 77z m111 -122 c21 -70 -22 -127 -75 -97 -17
9 -18 12 -5 14 13 3 15 15 12 65 -3 42 -1 63 8 69 21 13 48 -9 60 -51z"/>
<path d="M1121 4097 c-14 -6 -34 -27 -44 -45 -17 -29 -18 -39 -8 -73 10 -32
20 -44 56 -61 l43 -21 49 24 c46 23 48 26 51 72 3 43 0 51 -31 82 -38 38 -73
44 -116 22z"/>
<path d="M5640 4087 c-19 -6 -55 -32 -80 -57 -55 -54 -86 -138 -75 -198 10
-53 54 -130 91 -158 37 -28 47 -30 35 -6 -41 79 -39 191 5 279 36 70 105 133
148 134 26 0 28 2 11 9 -27 12 -93 10 -135 -3z"/>
<path d="M3862 4029 c140 -170 128 -385 -29 -550 -71 -75 -149 -111 -258 -119
-79 -5 -80 -5 -33 -13 52 -9 159 -3 253 15 46 8 78 24 135 64 42 29 77 60 78
71 1 10 5 50 8 88 4 39 10 72 15 75 5 3 4 23 -2 44 -6 21 -8 45 -5 53 9 23
-13 136 -33 166 -9 14 -50 54 -91 89 -74 61 -74 61 -38 17z m128 -192 c0 -16
-18 3 -23 25 -6 22 -5 22 8 4 8 -11 15 -24 15 -29z"/>
<path d="M2490 3883 l0 -133 140 0 140 0 0 133 0 132 -140 1 -140 0 0 -133z"/>
<path d="M2831 3883 l3 -133 133 0 133 0 0 133 0 132 -136 0 -135 0 2 -132z"/>
<path d="M1415 4000 c4 -6 11 -8 16 -5 5 4 9 -1 9 -10 0 -22 27 -30 46 -14 14
12 12 15 -17 25 -43 16 -62 17 -54 4z"/>
<path d="M3447 3969 c-89 -59 -120 -177 -77 -291 23 -61 43 -87 85 -113 l30
-19 -26 30 c-40 44 -65 104 -61 147 3 34 22 54 22 23 0 -8 4 -17 9 -21 6 -3
13 16 16 42 8 59 48 138 87 175 30 28 40 31 88 30 24 0 24 0 -5 13 -53 25
-116 19 -168 -16z"/>
<path d="M9136 3912 c-3 -20 -6 -53 -6 -74 0 -35 -2 -36 -48 -48 -47 -11 -49
-13 -65 -64 -10 -29 -17 -56 -17 -59 0 -12 86 -7 98 5 7 7 12 20 12 30 0 10 5
18 11 18 6 0 16 6 23 13 7 6 29 26 48 43 20 17 39 41 42 52 11 34 -20 80 -75
112 -14 8 -18 3 -23 -28z"/>
<path d="M8471 3846 c-82 -29 -153 -123 -155 -202 -1 -54 21 -78 96 -105 32
-12 58 -25 58 -29 0 -4 -29 -26 -65 -49 -44 -27 -75 -56 -96 -88 -27 -43 -30
-54 -26 -105 13 -151 122 -252 299 -277 70 -10 88 -8 177 13 100 25 161 57
200 108 36 47 53 116 39 165 -9 31 -62 117 -95 151 -17 17 -17 47 0 64 24 25
37 69 37 126 0 66 -25 116 -67 134 -16 7 -44 25 -64 41 -59 46 -129 67 -222
66 -45 0 -97 -6 -116 -13z m190 -153 c62 -37 53 -139 -14 -163 -44 -15 -82
-12 -107 8 -22 18 -22 18 -3 57 15 33 80 113 91 115 2 0 17 -8 33 -17z m159
-240 l25 -27 -32 19 c-18 11 -33 23 -33 27 0 15 15 8 40 -19z m-142 -92 c41
-29 64 -88 52 -133 -28 -98 -159 -124 -230 -46 -25 27 -38 78 -20 78 4 0 13
13 19 28 6 15 23 36 36 46 21 16 23 21 13 34 -10 13 -10 14 0 8 7 -4 12 -2 12
5 0 19 84 5 118 -20z"/>
<path d="M1455 3819 c-26 -16 -27 -19 -9 -19 11 0 29 9 39 20 23 25 9 25 -30
-1z"/>
<path d="M4357 3787 c23 -70 11 -112 -48 -169 -27 -27 -56 -48 -66 -48 -9 0
-14 -2 -11 -5 10 -10 136 27 157 46 11 10 25 19 32 19 8 0 9 11 5 31 -3 17 -6
43 -6 58 0 16 -15 43 -39 70 l-39 44 15 -46z"/>
<path d="M4776 3783 c59 -116 6 -246 -113 -279 -48 -14 -48 -14 -8 -10 22 3
63 8 90 11 61 9 63 7 100 -98 22 -63 37 -85 72 -117 57 -50 119 -65 191 -46
70 18 97 38 138 102 30 46 37 68 41 128 6 75 -6 114 -60 190 -44 62 -160 91
-260 64 -57 -15 -89 -5 -140 40 -74 66 -77 67 -51 15z m338 -174 c21 -17 26
-29 26 -66 0 -54 -18 -121 -38 -145 -16 -19 -67 -25 -76 -10 -3 5 6 15 19 22
32 17 31 26 -4 44 -33 18 -41 34 -41 85 0 46 32 91 64 91 13 0 35 -9 50 -21z"/>
<path d="M7253 3708 c28 -54 32 -70 31 -142 0 -67 -5 -90 -26 -132 -48 -92
-140 -151 -242 -155 -17 -1 7 -6 54 -11 47 -5 115 -6 152 -3 53 5 72 3 93 -11
21 -14 40 -16 100 -11 l74 7 -9 -25 c-5 -13 -18 -42 -29 -63 -18 -35 -18 -41
-5 -60 42 -60 133 -80 173 -38 29 31 38 87 17 105 -9 7 -16 27 -16 43 0 24 3
28 19 23 48 -15 134 -23 156 -15 48 18 59 77 21 115 -22 22 -45 31 -141 55
l-41 10 1 59 c0 76 -20 101 -81 101 -49 0 -74 -25 -74 -74 0 -27 -1 -28 -17
-13 -10 9 -36 49 -58 88 -38 70 -132 181 -167 200 -12 7 -8 -8 15 -53z"/>
<path d="M2490 3551 l0 -133 31 6 c17 3 80 6 140 6 l109 0 0 108 c0 160 13
147 -145 147 l-135 0 0 -134z"/>
<path d="M2840 3550 l0 -130 135 0 136 0 -3 128 -3 127 -132 3 -133 3 0 -131z"/>
<path d="M6965 3656 c-54 -54 -53 -148 3 -197 15 -13 21 -17 15 -9 -40 45 26
199 86 200 13 1 13 3 -3 15 -30 22 -74 18 -101 -9z"/>
<path d="M1344 3659 c-101 -29 -184 -133 -184 -228 0 -40 6 -54 35 -88 19 -22
48 -46 65 -53 l32 -13 -31 -13 c-48 -20 -118 -92 -137 -139 -20 -54 -13 -118
21 -185 34 -66 67 -97 143 -133 53 -25 83 -32 146 -35 125 -6 172 8 253 80 37
33 67 64 66 68 -1 4 11 20 27 35 33 32 37 56 15 98 -8 15 -17 44 -21 64 -4 24
-23 53 -54 85 l-47 49 29 31 c37 40 68 100 68 133 0 14 5 25 10 25 6 0 10 9
10 20 0 11 -7 20 -15 20 -8 0 -23 19 -33 43 -41 93 -147 148 -285 146 -45 0
-96 -5 -113 -10z m180 -160 c28 -13 56 -64 56 -104 0 -16 -11 -38 -29 -56 -25
-25 -37 -29 -83 -29 -79 0 -127 37 -128 100 0 27 3 32 11 20 8 -12 10 -12 8 5
-2 32 1 49 7 42 4 -3 18 3 32 13 28 22 87 26 126 9z m5 -333 c41 -22 64 -62
63 -112 -2 -86 -46 -134 -125 -134 -145 0 -210 153 -101 239 32 25 120 29 163
7z"/>
<path d="M7975 3616 c-45 -20 -76 -59 -82 -103 -5 -35 -1 -43 33 -79 l39 -40
46 17 c37 14 50 15 70 5 30 -14 36 -49 15 -82 -28 -41 -91 -28 -136 29 -24 30
-64 36 -74 11 -4 -9 2 -33 12 -53 35 -69 152 -103 225 -64 18 9 38 18 45 19 8
1 15 4 16 6 48 66 68 118 47 118 -6 0 -11 -11 -11 -25 0 -14 -4 -25 -10 -25
-5 0 -10 10 -10 23 0 32 -35 84 -72 108 -27 16 -43 19 -85 14 -51 -5 -53 -4
-53 20 0 18 8 29 26 37 22 10 32 9 65 -10 47 -27 60 -28 82 -1 18 20 18 22 0
41 -40 45 -127 61 -188 34z"/>
<path d="M1967 3536 c-87 -32 -139 -90 -153 -173 -18 -112 84 -233 196 -233
58 0 95 23 133 83 19 28 41 58 50 66 12 9 17 29 17 68 0 87 -45 155 -122 188
-45 18 -71 18 -121 1z m133 -55 c35 -25 66 -74 74 -116 10 -53 -9 -107 -57
-159 -40 -42 -47 -46 -91 -46 -96 0 -158 62 -164 165 -5 68 8 103 51 144 47
43 136 49 187 12z"/>
<path d="M1930 3413 c-21 -27 -23 -44 -5 -46 6 0 12 8 14 18 2 10 13 27 25 36
18 15 18 18 4 19 -9 0 -26 -12 -38 -27z"/>
<path d="M8993 3538 c-36 -47 -14 -98 42 -98 26 0 39 6 51 26 16 24 16 27 -3
52 -22 30 -73 41 -90 20z"/>
<path d="M2307 3492 c-22 -24 -21 -35 1 -55 25 -22 55 -21 76 2 14 15 15 24 7
39 -19 35 -59 42 -84 14z"/>
<path d="M4097 3484 c-175 -42 -291 -152 -333 -314 -33 -129 -1 -253 87 -335
27 -25 49 -48 49 -50 0 -3 -14 -12 -32 -21 -60 -31 -126 -103 -149 -163 -42
-109 -25 -263 41 -378 121 -210 450 -327 685 -242 28 10 64 20 80 22 52 9 90
30 90 52 0 11 6 21 13 21 6 1 19 2 27 3 8 0 15 5 15 11 0 5 -8 7 -17 3 -11 -4
-9 2 7 14 17 14 27 18 32 10 9 -14 56 6 64 28 4 8 12 15 20 15 7 0 17 6 21 14
4 8 25 26 46 40 l38 26 31 -36 c17 -19 44 -42 59 -50 34 -17 130 -19 162 -2
12 6 29 14 37 18 8 4 16 18 17 31 2 13 6 42 9 65 4 25 0 53 -9 75 -9 23 -11
42 -6 58 12 30 -14 84 -51 111 -20 14 -44 20 -82 20 -63 0 -110 -22 -139 -65
-16 -24 -20 -26 -18 -10 1 11 0 22 -1 25 -1 3 -3 19 -5 36 -3 33 -57 124 -63
105 -2 -6 -24 16 -48 50 -26 35 -66 74 -95 91 -55 35 -60 41 -26 32 18 -4 35
4 70 33 25 21 51 49 59 63 7 14 17 28 22 31 8 7 24 67 33 129 5 42 -41 154
-62 146 -7 -2 -22 15 -36 46 -46 98 -183 199 -328 242 -68 20 -232 20 -314 0z
m256 -288 c79 -32 124 -131 98 -216 -24 -80 -80 -120 -169 -120 -86 0 -146 31
-178 93 -13 24 -13 30 1 49 8 13 15 28 15 36 0 7 11 24 25 38 14 14 25 31 25
39 0 7 21 32 46 54 51 45 81 51 137 27z m32 -589 c79 -45 111 -134 81 -225
-16 -47 -60 -99 -101 -120 -75 -37 -196 -16 -240 43 -15 19 -24 39 -20 45 3 5
0 10 -8 10 -34 0 -48 128 -21 185 26 57 90 82 204 84 50 0 74 -4 105 -22z
m706 -173 c9 -11 8 -18 -2 -30 -33 -41 -89 -33 -89 12 0 40 62 53 91 18z m10
-150 c13 -36 -11 -69 -53 -72 -33 -3 -39 1 -53 28 -22 42 -14 58 32 63 57 6
65 4 74 -19z m-378 -118 c-10 -13 -20 -22 -22 -20 -4 4 29 44 36 44 2 0 -4
-11 -14 -24z"/>
<path d="M5673 3320 c-147 -72 -208 -173 -201 -331 3 -73 9 -97 36 -152 36
-73 74 -109 166 -158 49 -26 75 -33 137 -37 71 -4 83 -2 149 29 85 39 139 94
184 189 26 55 30 77 31 145 0 66 -5 90 -26 135 -38 80 -106 151 -182 188 -55
27 -76 32 -138 32 -66 0 -83 -5 -156 -40z m274 -59 c50 -26 109 -85 136 -135
18 -33 22 -58 22 -132 0 -88 -1 -92 -38 -147 -44 -67 -101 -112 -170 -132 -65
-19 -102 -19 -163 2 -57 19 -160 114 -150 139 3 8 2 13 -3 10 -17 -11 -36 60
-36 134 1 57 6 86 23 120 12 25 19 36 16 25 -37 -117 -42 -206 -15 -252 8 -14
11 -5 11 42 1 82 9 148 18 155 11 8 58 82 73 115 9 18 23 31 37 33 12 2 22 7
22 12 0 4 -10 6 -22 3 -34 -9 -17 5 28 22 52 20 159 13 211 -14z m-334 -76
c-3 -9 -8 -14 -10 -11 -3 3 -2 9 2 15 9 16 15 13 8 -4z"/>
<path d="M3250 3323 c-23 -8 -70 -55 -86 -85 -36 -69 -4 -166 63 -195 74 -31
242 5 257 54 22 77 20 87 -35 147 -28 31 -65 64 -80 71 -28 15 -90 19 -119 8z"/>
<path d="M3023 3161 c84 -95 137 -239 137 -374 0 -124 -60 -267 -148 -355
-103 -103 -254 -172 -376 -172 -27 0 -47 -2 -44 -5 2 -3 77 -6 166 -6 134 -1
166 1 186 15 14 9 32 16 40 16 8 0 16 4 18 8 2 4 18 15 35 23 33 16 163 133
163 147 0 4 17 25 38 45 l38 38 47 -27 c86 -48 200 -30 250 40 16 23 22 45 22
85 0 49 -3 56 -38 86 l-38 33 31 19 c28 16 31 22 26 52 -16 104 -164 141 -265
66 -43 -31 -51 -25 -99 73 -29 60 -51 87 -117 146 -110 99 -128 110 -72 47z
m438 -311 c12 -7 19 -21 19 -40 0 -34 -23 -50 -73 -50 -28 0 -35 4 -39 23 -11
58 40 95 93 67z m21 -167 c26 -23 25 -99 -1 -113 -47 -24 -102 -7 -126 40 -20
38 -21 35 22 65 43 29 79 32 105 8z"/>
<path d="M7037 3136 c74 -82 108 -145 129 -245 19 -92 6 -195 -35 -286 -36
-79 -142 -209 -195 -240 -65 -38 -189 -67 -261 -61 l-60 5 73 -18 c75 -19 134
-17 242 8 25 6 66 10 91 11 25 0 75 9 111 21 l65 20 6 60 c4 32 15 76 26 97
18 35 18 42 5 92 -8 30 -14 68 -14 86 0 17 -4 44 -10 60 -13 41 -18 149 -9
198 10 55 -11 88 -109 168 -117 96 -122 98 -55 24z"/>
<path d="M6612 3105 c-22 -9 -38 -27 -48 -52 -14 -33 -14 -40 -1 -68 16 -33
68 -65 107 -65 12 0 37 15 56 34 43 43 45 83 7 126 -34 36 -76 45 -121 25z"/>
<path d="M8047 3109 c-125 -29 -201 -118 -202 -236 0 -54 -2 -60 -15 -49 -8 7
-42 28 -75 46 l-60 34 41 -45 c80 -88 97 -226 39 -320 -54 -86 -102 -124 -202
-158 -61 -21 -52 -24 35 -12 28 4 52 4 52 0 0 -8 51 7 93 27 16 8 37 14 48 14
11 0 19 7 19 18 1 15 2 14 12 -3 32 -58 93 -125 136 -148 68 -37 175 -54 242
-39 71 16 159 59 198 95 17 17 33 27 34 21 0 -5 4 14 8 41 l7 50 1 -62 2 -63
113 -2 c61 -2 164 -2 227 0 l115 3 -40 -29 c-150 -109 -255 -309 -293 -554
l-9 -56 114 -18 c100 -15 116 -15 129 -2 8 8 21 54 30 102 17 101 44 179 79
231 14 20 25 39 25 44 0 7 30 41 141 159 65 70 89 119 89 182 0 48 -1 51 -37
68 -21 9 -41 22 -45 27 -5 6 -97 10 -240 11 -342 0 -341 0 -329 22 7 13 5 27
-5 48 -20 39 -105 124 -124 124 -10 0 -3 12 20 34 68 67 80 87 80 133 0 44
-39 123 -60 123 -6 0 -10 7 -10 15 0 8 -8 15 -18 15 -10 0 -29 12 -43 26 -72
76 -205 111 -322 83z m186 -198 c22 -38 22 -73 -3 -103 -25 -32 -69 -50 -111
-46 l-34 3 0 57 c0 42 5 62 20 78 43 48 103 53 128 11z m-253 -180 c0 -10 -70
-74 -76 -69 -2 2 1 21 7 41 9 32 14 37 39 37 17 0 30 -4 30 -9z m239 -131 c38
-26 53 -73 41 -125 -11 -48 -58 -94 -98 -96 -74 -3 -87 7 -106 77 -22 85 0
144 57 150 12 1 24 3 27 3 3 1 -2 6 -10 12 -11 8 -6 9 23 5 20 -2 50 -14 66
-26z m238 -142 c-3 -7 -5 -2 -5 12 0 14 2 19 5 13 2 -7 2 -19 0 -25z"/>
<path d="M5043 3090 c-65 -15 -115 -71 -124 -140 -4 -24 -2 -25 64 -28 l67 -3
0 29 c0 48 18 55 130 50 l100 -5 0 47 c0 34 -4 50 -16 54 -22 8 -182 6 -221
-4z"/>
<path d="M2532 3052 c-151 -54 -216 -244 -136 -392 15 -28 41 -61 57 -72 26
-19 28 -19 17 -2 -9 14 -9 48 -2 131 7 88 14 122 36 167 15 31 25 60 21 66 -3
5 -1 10 6 10 6 0 26 15 43 34 35 36 116 63 158 51 21 -5 22 -5 4 6 -35 21
-145 22 -204 1z"/>
<path d="M8862 3009 c-176 -89 -103 -390 94 -389 108 1 194 92 194 206 0 44
-49 133 -93 168 -51 41 -132 47 -195 15z m155 -15 c74 -36 117 -136 95 -221
-29 -113 -171 -169 -256 -102 -37 29 -67 92 -73 153 -12 129 119 224 234 170z"/>
<path d="M8886 2938 c-13 -13 -27 -34 -31 -48 l-6 -25 18 22 c10 12 45 31 77
41 42 13 54 21 42 25 -34 13 -75 7 -100 -15z"/>
<path d="M9040 2795 c0 -9 -11 -27 -25 -40 -35 -36 -106 -35 -141 0 -25 25
-25 25 -19 3 11 -36 20 -41 79 -46 51 -4 57 -2 86 26 25 26 42 72 25 72 -3 0
-5 -7 -5 -15z"/>
<path d="M1915 3013 c-11 -3 -32 -17 -47 -31 -39 -36 -38 -84 1 -123 54 -53
134 -35 161 37 25 66 -43 135 -115 117z"/>
<path d="M5074 2888 c3 -13 6 -33 6 -45 0 -20 5 -23 43 -23 51 0 67 -13 67
-55 0 -45 -35 -75 -87 -75 -44 0 -66 18 -77 63 -6 26 -9 27 -66 27 -54 0 -60
-2 -60 -20 0 -53 72 -131 137 -149 94 -27 200 5 232 68 43 84 35 148 -25 201
-32 27 -41 30 -106 30 -68 0 -70 -1 -64 -22z"/>
<path d="M6903 2890 c-55 -33 -62 -108 -15 -153 45 -43 104 -40 132 6 30 48
26 102 -9 138 -34 34 -64 37 -108 9z"/>
<path d="M6345 2877 c-54 -46 -35 -155 31 -171 61 -16 114 35 114 109 0 75
-87 113 -145 62z"/>
<path d="M1689 2843 c-13 -15 -12 -15 9 -4 23 12 28 21 13 21 -5 0 -15 -7 -22
-17z"/>
<path d="M7445 2777 c-61 -61 -67 -147 -13 -204 21 -22 40 -31 36 -15 -8 32
44 150 86 194 30 31 32 43 10 52 -42 16 -86 6 -119 -27z"/>
<path d="M8570 2790 c-24 -24 -25 -34 -4 -54 20 -20 53 -20 82 0 32 22 27 43
-13 60 -43 18 -41 18 -65 -6z"/>
<path d="M9177 2783 c-4 -3 -7 -14 -7 -24 0 -10 -9 -23 -20 -29 -11 -6 -20
-17 -20 -25 0 -8 -4 -15 -10 -15 -5 0 -10 -5 -10 -11 0 -18 24 -4 37 22 11 21
13 22 13 4 0 -17 3 -15 20 10 28 42 25 97 -3 68z"/>
<path d="M1680 2740 c-108 -23 -223 -107 -264 -193 -53 -113 -55 -241 -5 -338
31 -62 120 -146 186 -177 51 -24 70 -27 158 -27 97 0 104 2 178 38 42 21 77
43 77 49 0 5 7 8 15 5 9 -4 28 12 53 43 22 27 42 47 45 44 3 -3 3 3 0 15 -3
11 -9 19 -13 16 -5 -3 -3 6 3 19 7 14 14 21 17 16 3 -5 5 35 4 88 -3 146 -46
243 -146 325 -84 69 -203 98 -308 77z m171 -85 c124 -43 203 -155 203 -286 0
-183 -177 -333 -349 -297 -71 15 -115 39 -162 91 -81 87 -103 164 -78 272 8
38 25 81 36 95 l20 25 -16 -35 -16 -35 20 25 c10 14 31 39 45 55 14 17 29 38
32 47 4 14 33 29 104 52 32 10 119 5 161 -9z"/>
<path d="M6652 2710 c-32 -20 -62 -71 -62 -106 0 -29 65 -84 100 -84 23 0 42
10 66 34 28 28 34 41 34 78 0 78 -73 119 -138 78z"/>
<path d="M1170 2693 c-32 -12 -49 -37 -56 -78 -11 -76 31 -124 107 -125 41 0
51 4 78 35 39 45 42 96 8 139 -19 23 -32 29 -73 32 -27 2 -56 1 -64 -3z m78
-55 c7 -7 12 -21 12 -33 0 -49 -71 -65 -92 -20 -9 21 -8 28 7 45 20 22 55 26
73 8z"/>
<path d="M5468 2637 c-25 -8 -58 -21 -72 -30 -40 -27 -76 -89 -82 -143 -5 -42
-2 -59 21 -105 35 -70 80 -117 125 -129 46 -12 144 2 169 24 18 17 19 16 26
-31 12 -91 -33 -147 -116 -146 -41 1 -56 6 -80 29 -16 16 -29 38 -29 52 0 24
-2 24 -65 20 -35 -2 -67 -7 -70 -10 -4 -3 -2 -23 4 -43 34 -123 156 -189 302
-165 50 9 75 19 99 40 18 16 36 28 40 25 3 -2 13 5 20 16 8 10 20 19 27 19 7
0 13 9 13 19 0 11 4 21 9 23 5 2 12 32 15 68 4 44 3 59 -3 45 -9 -18 -10 -18
-10 7 -1 15 4 30 9 33 14 9 12 58 -4 113 -7 26 -21 72 -30 102 -29 103 -105
164 -216 175 -32 3 -75 -1 -102 -8z m148 -151 c37 -37 42 -62 19 -106 -10 -20
-28 -33 -54 -41 -47 -14 -83 -6 -111 23 -20 22 -28 54 -10 43 6 -3 10 0 10 7
0 17 86 106 104 108 4 0 23 -15 42 -34z"/>
<path d="M6053 2540 c-66 -40 -86 -103 -54 -174 16 -37 29 -51 63 -66 61 -28
81 -26 190 12 31 11 53 57 43 90 -4 13 -21 45 -38 72 -50 78 -137 107 -204 66z"/>
<path d="M3409 2363 c-32 -4 -38 -8 -43 -35 -15 -74 -2 -108 40 -108 15 0 29
12 43 35 18 31 25 35 60 35 69 0 66 -57 -4 -99 -31 -18 -34 -23 -25 -41 6 -12
22 -25 36 -30 34 -13 33 -67 -2 -109 -42 -51 -74 -38 -74 30 0 33 -26 44 -75
31 -26 -7 -30 -13 -30 -42 0 -51 39 -75 123 -74 41 0 79 7 99 17 39 20 103 97
103 123 0 20 -19 56 -21 39 0 -5 -7 6 -14 25 -15 40 -19 84 -6 76 12 -8 33 64
29 99 l-3 30 -100 1 c-55 1 -116 -1 -136 -3z"/>
<path d="M3172 2328 c-17 -17 -15 -45 4 -52 45 -17 82 10 63 46 -11 21 -49 24
-67 6z"/>
<path d="M6463 2259 c-109 -21 -186 -78 -233 -171 -46 -93 -43 -102 42 -130
39 -13 73 -27 74 -33 2 -5 -33 -39 -78 -75 l-80 -65 5 -57 c9 -107 82 -202
197 -257 47 -22 68 -26 145 -26 74 0 97 4 133 23 23 12 47 20 53 17 5 -4 8 -3
7 2 -2 4 19 28 46 53 29 26 43 34 33 20 -9 -13 -17 -28 -17 -31 0 -8 40 1 55
13 54 42 69 59 81 93 16 47 18 103 4 139 -7 20 -17 26 -39 26 -21 0 -36 9 -55
34 -14 19 -42 44 -61 56 -36 22 -70 73 -61 89 9 14 118 24 126 12 5 -8 14 -9
33 -2 50 19 37 55 -48 137 -82 79 -150 118 -234 134 -60 11 -69 11 -128 -1z
m161 -204 c29 -27 35 -70 11 -79 -9 -3 -53 -9 -98 -12 l-82 -7 19 24 c45 54
92 98 107 99 9 0 28 -11 43 -25z m7 -254 c31 -31 39 -46 39 -76 0 -20 -8 -50
-17 -66 -26 -43 -123 -75 -159 -51 -18 11 -37 87 -30 115 10 40 55 87 82 87
25 0 33 15 12 23 -7 3 -2 6 11 6 15 1 38 -13 62 -38z"/>
<path d="M7170 2231 c-15 -29 -13 -37 16 -50 52 -24 87 15 46 52 -25 22 -49
21 -62 -2z"/>
<path d="M2220 2212 c-80 -44 -121 -155 -81 -219 30 -47 103 -86 165 -87 28
-1 63 2 79 7 36 10 35 -6 -2 -44 -24 -23 -38 -29 -75 -29 -36 0 -48 5 -64 25
-16 20 -29 25 -66 25 -55 0 -58 -11 -17 -67 37 -51 84 -73 158 -73 72 0 118
27 178 103 55 71 69 114 54 169 -6 24 -17 50 -25 58 -8 8 -25 30 -37 49 -12
19 -39 48 -60 65 -32 26 -48 31 -105 34 -52 2 -75 -1 -102 -16z m131 -72 c24
-13 49 -61 49 -94 0 -33 -34 -56 -82 -56 -77 0 -105 75 -49 131 31 31 51 35
82 19z"/>
<path d="M2846 2094 l7 -136 -121 7 -122 7 0 -54 c0 -30 3 -83 7 -118 l6 -63
109 6 c59 3 109 3 109 -1 1 -4 4 -61 8 -127 l6 -120 102 -3 101 -3 6 28 c4 15
2 71 -3 123 -6 56 -7 97 -1 100 11 7 179 -5 201 -15 14 -5 18 2 23 42 9 74 10
125 2 161 l-8 32 -98 0 c-99 0 -134 6 -125 20 3 4 7 52 10 106 3 55 8 108 10
119 4 19 -2 20 -116 22 l-119 2 6 -135z m186 -235 c2 -61 -1 -113 -5 -116 -4
-2 -41 -1 -82 2 l-75 7 0 109 0 109 79 0 80 0 3 -111z"/>
<path d="M6972 2198 c-26 -26 -6 -68 33 -68 20 0 55 27 55 43 0 3 -7 13 -16
21 -18 19 -55 21 -72 4z"/>
<path d="M7398 2184 c-14 -31 -1 -57 31 -62 46 -7 67 40 33 71 -27 24 -51 21
-64 -9z"/>
<path d="M1188 2160 c-36 -28 -51 -72 -45 -127 7 -65 49 -103 113 -103 59 0
79 12 104 60 24 47 26 107 4 138 -36 52 -130 69 -176 32z m114 -57 c38 -34 13
-123 -35 -123 -55 0 -81 92 -35 124 29 20 47 20 70 -1z"/>
<path d="M7955 2132 c-28 -6 -55 -32 -55 -54 0 -24 22 -23 45 2 28 31 55 26
55 -10 0 -23 -9 -35 -45 -60 -25 -17 -45 -37 -45 -45 0 -15 98 -32 125 -21 28
10 6 26 -36 26 -47 0 -49 10 -9 34 45 26 65 61 52 90 -11 26 -55 45 -87 38z"/>
<path d="M7695 2114 c-16 -8 -37 -22 -45 -30 -12 -12 -12 -14 4 -14 9 0 26 5
37 10 18 10 19 7 19 -49 0 -35 -5 -61 -11 -63 -6 -2 0 -9 14 -15 l26 -12 6 62
c8 73 4 119 -10 124 -5 1 -23 -4 -40 -13z"/>
<path d="M8195 2105 c-43 -42 -29 -126 25 -155 27 -14 87 12 101 44 26 56 -20
136 -78 136 -13 0 -35 -11 -48 -25z m79 -27 c19 -27 21 -72 4 -85 -43 -33 -70
-20 -72 35 -1 65 38 94 68 50z"/>
<path d="M5819 2047 c-52 -35 -79 -82 -79 -138 0 -74 37 -101 150 -109 43 -3
74 -9 72 -15 -2 -5 -9 -9 -17 -7 -7 1 -16 -2 -19 -7 -4 -5 -25 -3 -53 5 -94
28 -129 13 -99 -44 17 -33 87 -72 127 -72 51 1 145 30 184 57 35 25 41 35 45
76 3 26 8 47 13 47 11 0 9 11 -10 60 -16 42 -17 43 -24 20 -6 -21 -7 -22 -8
-4 -2 38 -60 112 -105 133 -58 29 -133 28 -177 -2z m150 -93 c24 -30 29 -102
9 -122 -24 -24 -87 -9 -115 27 -19 23 -9 79 17 101 32 27 65 25 89 -6z"/>
<path d="M4786 2046 c-56 -21 -137 -80 -164 -120 -40 -59 -63 -133 -64 -210
-7 -324 387 -490 606 -256 72 77 101 147 101 246 0 71 -4 87 -34 147 -66 130
-174 199 -321 204 -57 2 -98 -2 -124 -11z m264 -39 c73 -35 137 -97 169 -166
37 -79 37 -192 0 -271 -58 -125 -156 -190 -294 -198 -103 -5 -174 20 -240 84
-54 52 -103 150 -111 220 -11 86 31 210 90 266 33 32 97 70 141 85 64 21 179
11 245 -20z"/>
<path d="M7150 1981 c0 -21 5 -31 16 -31 11 0 14 8 12 27 -4 39 -28 42 -28 4z"/>
<path d="M7390 1990 c-37 -37 -22 -98 29 -119 32 -14 64 -3 88 28 19 25 15 44
-16 79 -35 37 -71 42 -101 12z"/>
<path d="M1457 1879 c-76 -40 -118 -159 -88 -251 28 -85 138 -144 220 -119 80
24 151 116 151 196 0 142 -159 240 -283 174z"/>
<path d="M8202 1855 c-27 -22 -32 -34 -32 -69 0 -61 21 -86 75 -86 36 0 48 5
69 31 33 39 33 71 -1 108 -40 44 -73 48 -111 16z m76 -27 c16 -16 15 -60 -1
-82 -8 -11 -23 -17 -38 -14 -20 2 -25 9 -27 42 -2 21 -1 44 2 52 7 17 48 18
64 2z"/>
<path d="M4249 1841 c-1 -17 -2 -37 -3 -43 -1 -7 9 -14 22 -16 23 -3 32 21 12
33 -5 3 -10 15 -10 25 0 33 -20 33 -21 1z"/>
<path d="M4425 1850 c5 -15 1 -25 -11 -34 -20 -15 -11 -36 16 -36 25 0 35 17
20 35 -6 7 -10 21 -8 31 2 9 -3 19 -11 22 -9 3 -11 -1 -6 -18z"/>
<path d="M7660 1842 c-55 -56 -31 -132 47 -148 25 -5 34 -1 52 23 18 22 22 37
18 72 -5 48 -19 67 -59 76 -22 6 -33 1 -58 -23z m68 -14 c13 -13 16 -66 6 -92
-14 -36 -74 -2 -74 41 0 22 31 63 48 63 4 0 13 -5 20 -12z"/>
<path d="M7929 1842 c-42 -37 -47 -103 -10 -133 30 -24 82 -24 112 0 19 15 23
27 21 67 -3 88 -63 120 -123 66z m85 -35 c22 -62 -33 -115 -68 -65 -22 30 -20
54 5 79 26 26 51 21 63 -14z"/>
<path d="M4105 1830 c-4 -16 -4 -34 0 -40 8 -12 32 -13 39 -1 8 13 -4 42 -15
35 -5 -3 -6 1 -3 9 3 8 1 18 -5 21 -5 3 -12 -7 -16 -24z"/>
<path d="M1935 1843 c-47 -7 -58 -22 -52 -68 7 -51 47 -89 89 -83 35 6 35 -4
-1 -69 -16 -29 -26 -53 -21 -53 19 0 40 13 40 25 0 7 13 42 30 77 33 70 43
168 16 168 -7 0 -26 2 -42 4 -16 2 -42 2 -59 -1z m105 -38 c0 -33 -25 -81 -45
-89 -55 -21 -95 6 -95 64 0 45 6 48 83 49 55 1 57 0 57 -24z"/>
<path d="M3826 1818 c-20 -39 -20 -38 3 -38 29 0 45 25 31 49 -14 27 -16 27
-34 -11z"/>
<path d="M3980 1830 c0 -11 -4 -20 -10 -20 -5 0 -10 -7 -10 -15 0 -19 24 -19
39 -1 9 11 10 20 1 35 -14 26 -20 27 -20 1z"/>
<path d="M7050 1833 c-40 -8 -60 -32 -60 -75 0 -34 4 -41 33 -53 31 -13 32
-12 40 11 8 21 14 24 63 24 30 0 54 -4 54 -8 0 -19 -137 -151 -162 -157 -20
-5 -28 -13 -28 -29 1 -64 36 -96 107 -96 57 0 68 11 68 73 1 42 7 60 30 91 23
30 34 37 53 33 59 -11 85 79 42 148 -19 30 -24 32 -96 39 -81 6 -103 6 -144
-1z"/>
<path d="M5385 1769 c-4 -12 -2 -26 4 -32 13 -13 16 -10 25 26 8 33 -19 39
-29 6z"/>
<path d="M5587 1773 c-4 -3 -7 -16 -7 -27 1 -21 1 -21 15 -2 8 11 15 23 15 28
0 10 -14 11 -23 1z"/>
<path d="M1150 1675 c-11 -13 -11 -19 4 -33 20 -20 51 -6 51 24 0 24 -37 30
-55 9z"/>
<path d="M3629 1669 c-9 -17 -8 -25 4 -37 29 -28 73 12 47 43 -17 21 -37 19
-51 -6z"/>
<path d="M3970 1666 c0 -7 -3 -28 -6 -45 -6 -26 -3 -31 13 -31 40 0 57 45 27
74 -19 20 -34 21 -34 2z"/>
<path d="M3817 1663 c-13 -13 -7 -54 9 -60 19 -7 34 13 34 45 0 21 -27 31 -43
15z"/>
<path d="M4110 1626 c0 -49 12 -59 30 -25 15 28 9 63 -12 67 -15 3 -18 -4 -18
-42z"/>
<path d="M4251 1660 c-7 -4 -11 -18 -9 -31 5 -35 42 -33 46 2 3 28 -16 43 -37
29z"/>
<path d="M4410 1655 c-16 -19 -9 -49 12 -53 20 -4 40 30 32 52 -8 20 -28 21
-44 1z m30 -20 c0 -8 -7 -15 -15 -15 -9 0 -12 6 -9 15 4 8 10 15 15 15 5 0 9
-7 9 -15z"/>
<path d="M5471 1647 c-8 -11 -5 -16 15 -25 14 -7 34 -12 45 -12 33 0 72 -46
65 -76 -5 -17 -3 -23 4 -19 18 11 11 61 -12 82 -24 22 -89 63 -99 63 -4 0 -12
-6 -18 -13z"/>
<path d="M3348 1623 c-36 -22 -53 -57 -52 -105 2 -76 86 -128 152 -94 43 22
62 54 62 104 0 37 -6 50 -34 78 -39 39 -83 45 -128 17z"/>
<path d="M7680 1602 c-30 -14 -35 -23 -38 -56 -5 -63 4 -83 44 -96 32 -11 39
-10 63 7 22 17 26 29 29 76 3 48 0 57 -20 71 -28 20 -35 20 -78 -2z m63 -43
c8 -32 -4 -90 -21 -97 -35 -13 -69 77 -40 106 20 20 55 14 61 -9z"/>
<path d="M7929 1591 c-35 -35 -37 -72 -9 -118 17 -28 25 -33 60 -33 50 0 75
33 75 98 0 79 -70 108 -126 53z m81 -5 c0 -2 3 -12 7 -22 5 -13 3 -16 -9 -11
-10 3 -24 -3 -34 -15 -18 -19 -18 -20 9 -7 34 16 42 7 31 -33 -12 -40 -27 -45
-53 -19 -25 25 -27 58 -5 89 12 18 54 32 54 18z"/>
<path d="M8195 1595 c-34 -33 -33 -84 1 -124 32 -38 59 -39 96 -4 22 21 28 36
28 68 0 76 -74 112 -125 60z m85 -35 c15 -35 2 -76 -26 -87 -34 -13 -57 54
-34 98 16 29 46 24 60 -11z"/>
<path d="M8960 1591 c-15 -29 -12 -46 10 -66 13 -12 27 -15 45 -11 21 5 25 12
25 45 0 26 -5 41 -16 45 -29 11 -53 6 -64 -13z"/>
<path d="M2562 1554 c-30 -21 -30 -73 1 -102 29 -27 47 -28 81 -1 33 26 34 62
1 94 -28 29 -51 31 -83 9z"/>
<path d="M5980 1540 c-28 -28 -25 -64 6 -89 36 -28 68 -26 93 5 12 15 21 21
21 13 0 -10 3 -10 11 -2 9 9 6 19 -10 42 -39 54 -86 66 -121 31z"/>
<path d="M5725 1529 c-8 -26 16 -54 39 -46 19 7 21 38 4 55 -18 18 -36 14 -43
-9z"/>
<path d="M8487 1544 c-16 -17 -6 -44 19 -50 30 -8 47 6 42 32 -3 19 -47 32
-61 18z"/>
<path d="M2260 1483 c-33 -43 -14 -95 41 -108 37 -9 72 22 71 64 -2 69 -71 96
-112 44z"/>
<path d="M3820 1450 c0 -23 4 -30 20 -30 25 0 28 45 4 54 -23 9 -24 8 -24 -24z"/>
<path d="M3976 1473 c-12 -13 -6 -54 10 -60 16 -6 34 12 34 34 0 15 -35 35
-44 26z"/>
<path d="M4244 1466 c-3 -8 0 -25 7 -37 11 -22 12 -22 25 -4 19 25 18 32 -6
45 -16 8 -22 8 -26 -4z"/>
<path d="M4097 1448 c-3 -10 -1 -21 4 -24 12 -7 39 14 39 30 0 19 -38 13 -43
-6z"/>
<path d="M4410 1460 c-19 -11 -4 -40 20 -40 11 0 20 2 20 4 0 2 3 11 6 19 6
17 -27 29 -46 17z"/>
<path d="M68 523 c39 -2 105 -2 145 0 39 1 7 3 -73 3 -80 0 -112 -2 -72 -3z"/>
<path d="M7093 523 c9 -2 25 -2 35 0 9 3 1 5 -18 5 -19 0 -27 -2 -17 -5z"/>
<path d="M7238 523 c12 -2 32 -2 45 0 12 2 2 4 -23 4 -25 0 -35 -2 -22 -4z"/>
<path d="M7813 523 c9 -2 25 -2 35 0 9 3 1 5 -18 5 -19 0 -27 -2 -17 -5z"/>
<path d="M8162 525 c7 -7 489 -8 496 -1 3 3 -109 6 -248 6 -139 0 -251 -2
-248 -5z"/>
<path d="M8690 524 c8 -1 104 -5 212 -7 137 -2 201 -7 211 -16 9 -6 36 -11 60
-10 25 2 52 -3 60 -9 10 -9 16 -9 26 1 9 8 11 8 9 1 -2 -7 0 -13 4 -13 4 -1
23 -8 43 -17 19 -8 35 -12 35 -9 0 3 9 1 20 -5 13 -7 20 -7 20 -1 0 6 12 14
27 17 24 7 25 8 8 20 -10 7 -21 11 -26 9 -4 -3 -10 -1 -14 5 -4 6 13 10 44 10
28 0 51 5 51 10 0 6 14 10 31 10 28 0 30 -2 18 -17 -13 -15 -12 -15 8 -5 12 7
23 8 25 3 2 -5 33 -11 70 -13 37 -3 65 -1 62 3 -9 15 8 10 27 -7 12 -11 25
-14 36 -9 10 4 41 9 68 11 28 2 61 6 73 9 17 4 22 2 16 -6 -5 -8 -1 -11 12 -7
10 2 32 -1 48 -7 l29 -12 -27 -7 c-15 -4 -37 -4 -49 0 -12 3 -19 3 -15 -1 12
-13 -12 -35 -38 -35 -13 0 -24 -4 -24 -10 0 -5 19 -10 43 -10 26 0 58 -9 86
-25 23 -14 50 -25 58 -25 9 0 13 -6 10 -14 -6 -14 21 -29 77 -42 23 -5 25 -9
13 -16 -17 -9 -55 7 -114 50 -40 28 -53 28 -53 -3 0 -19 -6 -25 -22 -27 -13 0
-27 -2 -33 -3 -5 -2 -14 -3 -19 -4 -5 0 -3 -8 4 -16 10 -12 10 -15 -1 -16 -8
0 -32 -2 -54 -3 -22 -2 -46 1 -53 7 -7 5 -15 7 -19 3 -3 -3 -1 -6 5 -6 7 0 12
-4 12 -9 0 -11 -60 9 -79 27 -21 20 -46 10 -49 -21 -3 -27 -2 -28 45 -28 129
1 123 2 123 -24 0 -20 6 -24 33 -27 l32 -3 -24 -13 c-13 -8 -21 -10 -17 -4 3
6 -11 11 -33 14 -22 2 -37 0 -35 -4 3 -5 14 -8 25 -8 16 0 18 -3 10 -19 -9
-15 -6 -18 17 -18 55 -1 91 -6 87 -13 -2 -3 9 -5 24 -2 16 2 31 -1 35 -6 3 -6
16 -8 28 -4 21 5 21 6 2 13 -15 6 -12 8 14 8 23 1 31 5 27 14 -4 6 0 4 8 -5
18 -23 41 -24 33 -2 -5 14 -4 15 8 5 8 -6 18 -11 22 -10 5 1 17 -1 28 -6 11
-5 26 -3 37 3 10 7 26 12 34 12 12 0 15 9 14 37 -2 21 -7 44 -12 51 -6 8 -6
12 2 12 6 0 11 16 11 35 0 19 -4 35 -10 35 -5 0 -10 5 -10 11 0 5 5 7 10 4 6
-3 10 4 10 18 0 19 -7 25 -37 33 -50 12 -52 29 -3 28 l40 -1 -2 69 -2 68 -780
-1 c-430 -1 -774 -3 -766 -5z m1500 -13 c0 -6 -4 -13 -10 -16 -18 -11 -11 -27
9 -20 24 7 37 -10 14 -19 -22 -9 -138 5 -123 14 7 4 27 5 46 3 21 -3 34 0 34
6 0 6 -5 11 -12 11 -6 0 -3 7 8 15 22 17 34 19 34 6z m35 -2 c11 -16 1 -19
-13 -3 -7 8 -8 14 -3 14 5 0 13 -5 16 -11z m-915 -8 c0 -5 9 -7 19 -4 10 3 30
-2 43 -11 14 -9 29 -13 33 -9 5 5 4 1 -3 -8 -13 -17 -52 -15 -52 2 0 4 -12 7
-27 6 -19 -1 -28 3 -31 16 -2 9 1 17 7 17 6 0 11 -4 11 -9z m500 -1 c0 -5 -4
-10 -10 -10 -5 0 -10 5 -10 10 0 6 5 10 10 10 6 0 10 -4 10 -10z m330 -180 c0
-5 -4 -10 -9 -10 -6 0 -13 5 -16 10 -3 6 1 10 9 10 9 0 16 -4 16 -10z m55 0
c3 -5 -1 -10 -9 -10 -9 0 -16 5 -16 10 0 6 4 10 9 10 6 0 13 -4 16 -10z m-171
-19 c17 -6 17 -8 4 -14 -9 -3 -24 1 -35 8 -14 11 -15 14 -3 14 8 0 24 -4 34
-8z m192 -14 c8 3 14 -1 14 -11 0 -9 -3 -16 -6 -16 -14 0 -44 22 -44 32 0 9 3
9 11 1 6 -6 18 -9 25 -6z m-226 -7 c0 -5 -4 -10 -10 -10 -5 0 -10 5 -10 10 0
6 5 10 10 10 6 0 10 -4 10 -10z m-140 -40 c0 -5 -2 -10 -4 -10 -3 0 -8 5 -11
10 -3 6 -1 10 4 10 6 0 11 -4 11 -10z m81 -20 c10 0 19 -5 19 -11 0 -6 -9 -8
-20 -4 -11 4 -20 2 -20 -4 0 -6 9 -11 20 -11 11 0 20 -4 20 -10 0 -14 -13 -12
-35 4 -11 8 -25 12 -32 9 -7 -3 -13 0 -13 6 0 6 7 11 15 11 8 0 15 8 16 18 0
10 3 12 6 5 2 -7 13 -13 24 -13z m79 10 c-8 -5 -19 -10 -25 -10 -5 0 -3 5 5
10 8 5 20 10 25 10 6 0 3 -5 -5 -10z m130 -10 c-20 -13 -37 -12 -46 1 -4 7 0
9 14 5 11 -4 23 -2 27 4 4 6 10 9 13 5 4 -3 0 -10 -8 -15z m40 -30 c0 -5 -7
-7 -15 -4 -8 4 -15 8 -15 10 0 2 7 4 15 4 8 0 15 -4 15 -10z m36 -15 c9 -8 11
-15 6 -15 -5 0 -15 7 -22 15 -7 8 -9 15 -6 15 4 0 14 -7 22 -15z m-186 -15
c12 -8 10 -10 -10 -10 -14 0 -32 5 -40 10 -12 8 -10 10 10 10 14 0 32 -5 40
-10z"/>
<path d="M9460 460 c-9 -6 -10 -10 -3 -10 6 0 15 5 18 10 8 12 4 12 -15 0z"/>
<path d="M9860 466 c0 -2 7 -6 15 -10 8 -3 15 -1 15 4 0 6 -7 10 -15 10 -8 0
-15 -2 -15 -4z"/>
<path d="M8570 430 c0 -5 5 -10 10 -10 6 0 10 5 10 10 0 6 -4 10 -10 10 -5 0
-10 -4 -10 -10z"/>
<path d="M8900 381 c0 -5 14 -11 32 -13 28 -5 29 -4 13 9 -21 15 -45 17 -45 4z"/>
<path d="M9040 384 c8 -4 29 -12 45 -19 35 -15 82 -18 69 -5 -9 9 -26 13 -94
24 -19 4 -28 3 -20 0z"/>
<path d="M9776 382 c-3 -5 14 -9 37 -10 32 0 37 1 22 8 -26 11 -53 12 -59 2z"/>
<path d="M8815 360 c-3 -5 -1 -10 4 -10 6 0 11 5 11 10 0 6 -2 10 -4 10 -3 0
-8 -4 -11 -10z"/>
<path d="M8985 360 c3 -5 11 -10 16 -10 6 0 7 5 4 10 -3 6 -11 10 -16 10 -6 0
-7 -4 -4 -10z"/>
<path d="M8865 349 c-19 -9 -19 -9 2 -5 12 2 24 -1 26 -7 1 -5 10 -8 17 -5 12
4 10 7 -5 15 -12 7 -28 7 -40 2z"/>
<path d="M9035 350 c-3 -5 -1 -10 4 -10 6 0 11 5 11 10 0 6 -2 10 -4 10 -3 0
-8 -4 -11 -10z"/>
<path d="M9165 344 c-11 -8 -18 -18 -15 -22 3 -4 -5 -8 -17 -10 -40 -6 -25
-19 20 -16 23 1 44 3 47 4 3 1 8 2 12 1 4 0 5 6 1 14 -3 10 -12 13 -24 10 -11
-4 -19 -2 -19 4 0 12 9 14 50 12 23 -1 23 0 5 8 -28 13 -37 12 -60 -5z"/>
<path d="M7018 333 c7 -3 16 -2 19 1 4 3 -2 6 -13 5 -11 0 -14 -3 -6 -6z"/>
<path d="M9265 330 c-3 -5 1 -10 9 -10 9 0 16 5 16 10 0 6 -4 10 -9 10 -6 0
-13 -4 -16 -10z"/>
<path d="M9925 330 c3 -5 8 -10 11 -10 2 0 4 5 4 10 0 6 -5 10 -11 10 -5 0 -7
-4 -4 -10z"/>
<path d="M5491 314 c0 -11 3 -14 6 -6 3 7 2 16 -1 19 -3 4 -6 -2 -5 -13z"/>
<path d="M9518 323 c7 -3 16 -2 19 1 4 3 -2 6 -13 5 -11 0 -14 -3 -6 -6z"/>
<path d="M9845 310 c3 -5 13 -10 21 -10 8 0 12 5 9 10 -3 6 -13 10 -21 10 -8
0 -12 -4 -9 -10z"/>
<path d="M9530 300 c-11 -7 -11 -10 -2 -10 7 0 11 -4 7 -9 -4 -8 11 -8 54 -2
6 1 -32 30 -39 31 -3 0 -12 -5 -20 -10z"/>
<path d="M9058 293 c6 -2 18 -2 25 0 6 3 1 5 -13 5 -14 0 -19 -2 -12 -5z"/>
<path d="M9587 268 c-27 -15 -52 -26 -57 -23 -5 3 -11 -1 -13 -7 -3 -8 -6 -6
-6 4 -1 13 -8 17 -26 16 -27 -2 -35 -18 -10 -18 8 0 15 -7 15 -15 0 -9 9 -15
23 -15 17 0 19 -2 7 -9 -8 -6 -18 -7 -22 -5 -4 3 -8 0 -8 -5 0 -6 9 -11 20
-11 11 0 20 -5 20 -10 0 -7 6 -7 19 0 13 6 22 7 26 0 3 -5 26 -8 50 -7 34 1
41 4 33 15 -25 30 4 19 79 -31 45 -29 76 -46 71 -37 -6 8 -37 31 -70 50 -33
19 -68 45 -77 56 -10 12 -25 23 -35 25 -22 5 -16 25 7 21 10 -2 17 3 17 12 0
25 -13 24 -63 -6z m28 -41 c10 -8 15 -19 12 -24 -9 -14 -53 -5 -68 13 -10 12
-8 13 16 4 15 -6 30 -8 33 -5 3 2 -6 9 -19 14 -14 6 -17 10 -8 10 8 1 23 -5
34 -12z"/>
<path d="M5720 283 c0 -6 8 -17 18 -24 16 -13 16 -13 2 6 -8 11 -16 22 -17 24
-2 2 -3 0 -3 -6z"/>
<path d="M7098 273 c7 -3 16 -2 19 1 4 3 -2 6 -13 5 -11 0 -14 -3 -6 -6z"/>
<path d="M7358 263 c7 -3 16 -2 19 1 4 3 -2 6 -13 5 -11 0 -14 -3 -6 -6z"/>
<path d="M9088 263 c6 -2 18 -2 25 0 6 3 1 5 -13 5 -14 0 -19 -2 -12 -5z"/>
<path d="M9350 250 c0 -5 7 -10 15 -10 8 0 15 5 15 10 0 6 -7 10 -15 10 -8 0
-15 -4 -15 -10z"/>
<path d="M9444 224 c3 -8 6 -18 6 -20 0 -2 8 -4 18 -3 10 0 12 3 4 6 -6 2 -10
8 -7 13 3 4 -2 11 -11 14 -12 5 -15 2 -10 -10z"/>
<path d="M9280 196 c0 -2 11 -6 25 -8 14 -3 25 -1 25 3 0 5 -11 9 -25 9 -14 0
-25 -2 -25 -4z"/>
<path d="M9750 191 c0 -7 -5 -9 -12 -5 -7 5 -8 3 -3 -5 5 -9 10 -10 18 -2 6 6
8 14 4 18 -4 3 -7 1 -7 -6z"/>
<path d="M9195 170 c-3 -5 -1 -10 4 -10 6 0 11 5 11 10 0 6 -2 10 -4 10 -3 0
-8 -4 -11 -10z"/>
<path d="M8506 152 c5 -22 3 -23 -30 -21 -19 2 -38 0 -42 -4 -4 -4 15 -7 43
-7 36 0 53 4 57 15 3 9 0 15 -8 15 -8 0 -17 6 -20 13 -3 6 -3 1 0 -11z"/>
<path d="M9650 131 c0 -5 9 -7 20 -4 11 3 20 7 20 9 0 2 -9 4 -20 4 -11 0 -20
-4 -20 -9z"/>
<path d="M9327 123 c-9 -14 10 -36 22 -28 14 8 115 -4 107 -13 -9 -8 25 -42
41 -42 7 0 13 -6 13 -14 0 -9 7 -12 19 -9 10 3 22 0 25 -6 4 -6 26 -11 49 -11
32 0 38 3 29 12 -7 7 -12 17 -12 22 0 7 3 7 8 0 4 -7 25 -15 47 -18 22 -3 54
-9 70 -12 l30 -6 -25 28 c-15 18 -17 22 -5 12 11 -9 31 -18 45 -20 14 -2 30
-7 36 -11 7 -4 17 0 24 8 13 15 5 20 -27 16 -6 -1 -34 7 -61 17 -28 11 -62 17
-76 15 -22 -5 -24 -8 -15 -27 10 -21 10 -21 -8 -1 -28 30 -59 45 -93 45 -16 0
-30 5 -30 11 0 5 -4 7 -10 4 -5 -3 -10 -3 -10 2 0 4 -36 9 -81 10 -44 1 -86 7
-94 13 -7 6 -16 7 -18 3z m177 -49 c3 -8 2 -12 -4 -9 -6 3 -10 10 -10 16 0 14
7 11 14 -7z m216 -34 c0 -5 -2 -10 -4 -10 -3 0 -8 5 -11 10 -3 6 -1 10 4 10 6
0 11 -4 11 -10z"/>
<path d="M9703 113 c9 -2 25 -2 35 0 9 3 1 5 -18 5 -19 0 -27 -2 -17 -5z"/>
<path d="M10218 113 c7 -3 16 -2 19 1 4 3 -2 6 -13 5 -11 0 -14 -3 -6 -6z"/>
<path d="M8510 106 c0 -9 40 -13 46 -5 3 5 -6 9 -20 9 -14 0 -26 -2 -26 -4z"/>
<path d="M9620 86 c0 -8 10 -13 24 -13 17 0 23 4 19 13 -3 8 -14 14 -24 14
-10 0 -19 -6 -19 -14z"/>
<path d="M9830 75 c0 -2 10 -10 23 -16 20 -11 21 -11 8 4 -13 16 -31 23 -31
12z"/>
<path d="M9355 60 c-16 -7 -17 -9 -3 -9 9 -1 20 4 23 9 7 11 7 11 -20 0z"/>
<path d="M9215 30 c4 -6 11 -8 16 -5 14 9 11 15 -7 15 -8 0 -12 -5 -9 -10z"/>
<path d="M9918 3 c7 -3 16 -2 19 1 4 3 -2 6 -13 5 -11 0 -14 -3 -6 -6z"/>
</g>
</svg>
